<?xml version="1.0" encoding="UTF-8" standalone="no"?>
<!DOCTYPE svg PUBLIC "-//W3C//DTD SVG 1.1//EN" "http://www.w3.org/Graphics/SVG/1.1/DTD/svg11.dtd">
<svg width="100%" height="100%" viewBox="0 0 100 100" version="1.1" xmlns="http://www.w3.org/2000/svg" xmlns:xlink="http://www.w3.org/1999/xlink" xml:space="preserve" xmlns:serif="http://www.serif.com/" style="fill-rule:evenodd;clip-rule:evenodd;stroke-linejoin:round;stroke-miterlimit:2;">
    <g transform="matrix(0.95877,0,0,0.983282,1.05956,1.73056)">
        <path d="M11.757,72.105C10.191,77.518 8.402,85.667 9.172,92.772C9.479,95.608 12.031,97.661 14.867,97.354C17.703,97.046 19.756,94.494 19.449,91.658C18.768,85.382 20.607,78.117 21.987,73.776C25.531,73.898 29.128,74.61 32.684,74.79C42.6,75.292 53.84,73.972 61.497,67.028C71.177,58.251 73.935,44.146 81.434,33.725C84.551,29.392 88.444,25.591 92.75,22.448C94.741,20.996 97.131,19.945 99.024,18.395C100.283,17.363 100.286,15.193 99.251,14.04C97.741,12.357 95.368,11.192 93.432,10.076C87.68,6.758 81.283,4.362 74.791,2.983C52.06,-1.847 22.348,0.105 8.123,21.402C-0.804,34.769 1.865,50.03 5.416,64.559C6.566,62.455 7.529,59.258 8.556,57.081C10.715,52.502 13.35,48.165 16.341,44.08C29.042,26.735 48.021,17.272 69.156,16.007C62.387,18.983 55.495,21.02 49.021,24.789C36.765,31.925 26.14,41.549 19.108,53.965C15.9,59.628 13.411,65.829 11.757,72.105Z" style="fill:rgb(209,209,209);fill-rule:nonzero;"/>
    </g>
</svg>
