<?xml version="1.0" encoding="UTF-8" standalone="no"?>
<!DOCTYPE svg PUBLIC "-//W3C//DTD SVG 1.1//EN" "http://www.w3.org/Graphics/SVG/1.1/DTD/svg11.dtd">
<svg width="100%" height="100%" viewBox="0 0 100 100" version="1.1" xmlns="http://www.w3.org/2000/svg" xmlns:xlink="http://www.w3.org/1999/xlink" xml:space="preserve" xmlns:serif="http://www.serif.com/" style="fill-rule:evenodd;clip-rule:evenodd;stroke-linejoin:round;stroke-miterlimit:2;">
    <g>
        <g transform="matrix(1.16757,0,0,1.16757,-13.7355,-9.51059)">
            <path d="M35.837,18.232C33.601,17.633 31.247,17.633 29.011,18.232L28.44,21.63C27.69,21.95 26.98,22.36 26.328,22.85L23.1,21.645C21.463,23.282 20.286,25.321 19.687,27.557L22.344,29.75C22.246,30.56 22.246,31.38 22.344,32.19L19.687,34.383C20.286,36.619 21.463,38.658 23.1,40.295L26.328,39.09C26.98,39.58 27.69,39.99 28.44,40.31L29.011,43.708C31.247,44.307 33.601,44.307 35.837,43.708L36.408,40.31C37.159,39.99 37.868,39.58 38.521,39.09L41.749,40.295C43.386,38.658 44.563,36.619 45.162,34.383L42.505,32.19C42.603,31.38 42.603,30.56 42.505,29.75L45.162,27.557C44.563,25.321 43.386,23.282 41.749,21.645L38.521,22.85C37.868,22.36 37.159,21.95 36.408,21.63L35.837,18.232ZM32.424,28.333C33.88,28.333 35.062,29.514 35.062,30.97C35.062,32.426 33.88,33.607 32.424,33.607C30.969,33.607 29.787,32.426 29.787,30.97C29.787,29.514 30.969,28.333 32.424,28.333Z" style="fill:rgb(209,209,209);"/>
        </g>
        <g transform="matrix(2.4527,0,0,2.4527,-21.1207,-19.5561)">
            <path d="M33.7,17.845C32.851,17.762 31.997,17.762 31.149,17.845L30.729,19.89C29.916,20.014 29.119,20.228 28.353,20.527L26.966,18.966C26.19,19.318 25.451,19.745 24.757,20.241L25.416,22.222C24.774,22.736 24.191,23.32 23.676,23.962L21.695,23.303C21.2,23.996 20.773,24.736 20.42,25.512L21.981,26.898C21.682,27.665 21.469,28.461 21.344,29.274L19.299,29.695C19.217,30.543 19.217,31.397 19.299,32.245L21.344,32.665C21.469,33.478 21.682,34.275 21.981,35.042L20.42,36.428C20.773,37.204 21.2,37.944 21.695,38.637L23.676,37.978C24.191,38.62 24.774,39.204 25.416,39.718L24.757,41.699C25.451,42.195 26.19,42.622 26.966,42.974L28.353,41.413C29.119,41.712 29.916,41.926 30.729,42.05L31.149,44.095C31.997,44.178 32.851,44.178 33.7,44.095L34.12,42.05C34.933,41.926 35.73,41.712 36.496,41.413L37.882,42.974C38.658,42.622 39.398,42.195 40.091,41.699L39.433,39.718C40.074,39.204 40.658,38.62 41.172,37.978L43.153,38.637C43.649,37.944 44.076,37.204 44.429,36.428L42.868,35.042C43.166,34.275 43.38,33.478 43.504,32.665L45.549,32.245C45.632,31.397 45.632,30.543 45.549,29.695L43.504,29.274C43.38,28.461 43.166,27.665 42.868,26.898L44.429,25.512C44.076,24.736 43.649,23.996 43.153,23.303L41.172,23.962C40.658,23.32 40.074,22.736 39.433,22.222L40.091,20.241C39.398,19.745 38.658,19.318 37.882,18.966L36.496,20.527C35.73,20.228 34.933,20.014 34.12,19.89L33.7,17.845ZM32.424,28.333C33.88,28.333 35.062,29.514 35.062,30.97C35.062,32.426 33.88,33.607 32.424,33.607C30.969,33.607 29.787,32.426 29.787,30.97C29.787,29.514 30.969,28.333 32.424,28.333Z" style="fill:rgb(209,209,209);"/>
        </g>
    </g>
</svg>
