<?xml version="1.0" encoding="UTF-8" standalone="no"?>
<!DOCTYPE svg PUBLIC "-//W3C//DTD SVG 1.1//EN" "http://www.w3.org/Graphics/SVG/1.1/DTD/svg11.dtd">
<svg width="100%" height="100%" viewBox="0 0 100 100" version="1.1" xmlns="http://www.w3.org/2000/svg" xmlns:xlink="http://www.w3.org/1999/xlink" xml:space="preserve" xmlns:serif="http://www.serif.com/" style="fill-rule:evenodd;clip-rule:evenodd;stroke-linecap:round;stroke-linejoin:round;stroke-miterlimit:1.5;">
    <g>
        <g transform="matrix(0.998938,-0.0460816,0.0460816,0.998938,-3.52719,0.723241)">
            <path d="M19.892,66.737L47.331,45.331L56.899,57.595L30.991,77.807C33.147,79.476 34.536,82.089 34.536,85.024C34.536,90.058 30.449,94.146 25.414,94.146C20.379,94.146 16.292,90.058 16.292,85.024C16.292,83.162 16.851,81.43 17.81,79.986L17.647,79.776C16.197,80.746 14.455,81.313 12.581,81.313C7.546,81.313 3.459,77.225 3.459,72.191C3.459,67.156 7.546,63.068 12.581,63.068C15.571,63.068 18.228,64.511 19.892,66.737Z" style="fill:none;stroke:rgb(209,209,209);stroke-width:5px;"/>
        </g>
        <g transform="matrix(0.885241,1.04277,-0.928683,0.788391,42.0532,-78.6158)">
            <path d="M57.109,45.331C56.971,44.181 56.899,43.005 56.899,41.808C56.899,29.006 65.084,18.613 75.166,18.613C85.247,18.613 93.432,29.006 93.432,41.808C93.432,43.005 93.36,44.181 93.222,45.331L93.432,45.331L92.957,47.078C92.671,48.641 92.26,50.145 91.738,51.569L84.299,78.968L66.033,78.968L58.593,51.569C58.071,50.144 57.66,48.641 57.374,47.078L56.899,45.331L57.109,45.331Z" style="fill:rgb(209,209,209);stroke:rgb(209,209,209);stroke-width:3.86px;"/>
        </g>
    </g>
</svg>
