<?xml version="1.0" encoding="UTF-8" standalone="no"?>
<!DOCTYPE svg PUBLIC "-//W3C//DTD SVG 1.1//EN" "http://www.w3.org/Graphics/SVG/1.1/DTD/svg11.dtd">
<svg width="100%" height="100%" viewBox="0 0 100 100" version="1.1" xmlns="http://www.w3.org/2000/svg" xmlns:xlink="http://www.w3.org/1999/xlink" xml:space="preserve" xmlns:serif="http://www.serif.com/" style="fill-rule:evenodd;clip-rule:evenodd;stroke-linejoin:round;stroke-miterlimit:2;">
    <g transform="matrix(0.0656656,0,0,0.0656656,-71.1444,-197.208)">
        <path d="M2038.42,3047.24C1992.06,3044.19 1934.01,3059.33 1874.31,3089.65C1751.71,3152.14 1614.42,3268.95 1507.55,3401.58C1380.83,3559.01 1306.27,3724.31 1291.42,3881.03C1282.88,3971.24 1294.37,4057.72 1325.35,4137.78C1338.82,4172.36 1365,4221.01 1386.46,4251.2C1432.52,4315.82 1495.38,4372.31 1563.89,4410.42C1671.58,4470.39 1798.62,4494.2 1918.45,4477.01C2110.11,4449.5 2266.95,4324.44 2343.56,4137.66C2367.07,4080.16 2386.37,4005.48 2393.76,3942.39C2404.97,3847.5 2403.31,3754.55 2388.45,3650.4C2383.41,3615.66 2369.1,3543.91 2360.06,3509.24C2318.15,3346.97 2254.56,3210.44 2182.7,3128.1C2158.34,3100.26 2126.93,3075.36 2100.87,3063.4C2085.21,3056.08 2054.78,3048.21 2038.42,3047.24ZM2004.19,3160.03C1969.13,3158.26 1924.94,3171.37 1879.27,3196.8C1785.48,3249.19 1679.76,3345.75 1596.84,3454.66C1498.51,3583.94 1439.57,3718.8 1425.98,3845.83C1418.16,3918.95 1425.58,3988.75 1447.85,4053.06C1457.53,4080.84 1476.63,4119.81 1492.43,4143.92C1526.35,4195.52 1573.12,4240.29 1624.43,4270.1C1705.1,4317.01 1800.95,4334.38 1891.97,4318.68C2037.53,4293.56 2158.19,4190.02 2219.01,4037.76C2237.67,3990.88 2253.4,3930.17 2259.94,3879C2269.85,3802.06 2269.98,3726.88 2260.28,3642.83C2256.98,3614.8 2247.22,3556.95 2240.89,3529.03C2211.57,3398.37 2165.45,3288.85 2112.26,3223.3C2094.22,3201.13 2070.81,3181.46 2051.24,3172.17C2039.5,3166.48 2016.57,3160.57 2004.19,3160.03Z" style="fill:rgb(209,209,209);"/>
    </g>
</svg>
