<?xml version="1.0" encoding="UTF-8" standalone="no"?>
<!DOCTYPE svg PUBLIC "-//W3C//DTD SVG 1.1//EN" "http://www.w3.org/Graphics/SVG/1.1/DTD/svg11.dtd">
<svg width="100%" height="100%" viewBox="0 0 100 100" version="1.1" xmlns="http://www.w3.org/2000/svg" xmlns:xlink="http://www.w3.org/1999/xlink" xml:space="preserve" xmlns:serif="http://www.serif.com/" style="fill-rule:evenodd;clip-rule:evenodd;stroke-linejoin:round;stroke-miterlimit:2;">
    <g transform="matrix(-0.13431,-0.0256946,-0.0265589,0.138828,112.354,5.61385)">
        <g>
            <g>
                <path d="M589,585.4C558.6,661.7 476.8,726.6 415,723.7C466.8,678.1 477.5,659.3 471.1,625.4C456.911,637.59 432.7,645.6 411.2,638.8C465.8,559.8 463.6,459.8 404.6,393.7C405.8,437.8 410.1,480.8 397.1,522.3C383.6,565.3 372.936,590.612 311.6,609.6C292.593,580.296 322.7,556.4 328.7,530.1C244.1,563.1 232.2,631.9 297.1,715C216.5,690.2 153.1,610.1 145.7,527.5C138.9,452.3 168.5,371.4 211.4,348.5C211.4,367.2 209.1,386 212.1,403.9C214.9,420.7 220.5,440.3 243.9,439.3C268.6,438.3 272.2,418.9 273.6,399.7C274.2,391.1 273.1,382.1 271.5,373.5C265.7,342.9 258.5,312.5 253.4,281.8C244,224.8 236.3,167.6 261.7,112.2C282.5,66.9 309.581,54.78 362.981,39.58C352.281,54.08 354.7,49 348.8,57.8C311.7,113.1 301.8,172.6 323.1,236.1C331,259.8 348.2,273.3 374.2,271.5C397.9,269.9 405.9,252.8 411.2,232.5C415.9,214.6 405.082,182.257 401.482,162.257C452.182,194.857 478.3,250.1 467,303.2C463.8,318.4 459.3,333.5 457.2,348.8C454.5,368.1 455.287,391.281 474.487,398.281C493.587,405.181 511.894,404.361 525.7,373.8C531,365.7 535.4,357 540.3,348.4C602.5,402.7 622.6,501.3 589,585.4Z" style="fill:rgb(209,209,209);fill-rule:nonzero;"/>
            </g>
        </g>
    </g>
</svg>
