<?xml version="1.0" encoding="UTF-8" standalone="no"?>
<!DOCTYPE svg PUBLIC "-//W3C//DTD SVG 1.1//EN" "http://www.w3.org/Graphics/SVG/1.1/DTD/svg11.dtd">
<svg width="100%" height="100%" viewBox="0 0 100 100" version="1.1" xmlns="http://www.w3.org/2000/svg" xmlns:xlink="http://www.w3.org/1999/xlink" xml:space="preserve" xmlns:serif="http://www.serif.com/" style="fill-rule:evenodd;clip-rule:evenodd;stroke-linejoin:round;stroke-miterlimit:2;">
    <g>
        <g transform="matrix(1,0,0,1,-49.8875,-0.953732)">
            <path d="M88.468,82.087C88.195,82.087 87.937,82.234 87.767,82.486C87.597,82.738 87.534,83.068 87.595,83.382C88.808,89.612 93.887,94.376 99.831,94.376C101.256,94.376 102.644,94.102 103.946,93.599C108.082,92.002 111.354,88.099 112.184,83.359C112.239,83.048 112.172,82.724 112.002,82.477C111.832,82.23 111.576,82.087 111.307,82.087L88.468,82.087Z" style="fill:rgb(209,209,209);fill-rule:nonzero;"/>
        </g>
        <g transform="matrix(1,0,0,1,13.2888,-0.728134)">
            <path d="M36.655,7.306C22.288,7.306 10.67,18.995 10.67,33.859C10.67,38.675 13.208,45.713 15.423,49.751C21.362,60.923 23.395,65.65 24.396,71.754C24.396,71.754 24.396,76.803 24.396,76.803C24.396,77.387 24.797,77.861 25.292,77.861L48.131,77.861C48.626,77.861 49.027,77.387 49.027,76.803L49.027,71.754C50.028,65.65 52.062,61.043 58.003,49.744C60.101,45.839 62.752,38.673 62.752,33.859C62.752,33.856 62.752,33.853 62.752,33.849C62.636,18.989 51.018,7.306 36.655,7.306ZM42.747,72.47L30.563,72.47L30.562,72.465C29.641,66.297 27.822,58.944 23.793,51.62C23.793,51.619 23.793,51.619 23.793,51.619C22.899,49.998 21.894,48.253 20.777,46.008C20.771,45.996 20.765,45.984 20.758,45.972C18.93,42.611 16.962,37.101 16.962,33.859C16.962,23.206 25.825,14.446 36.655,14.446C42.06,14.446 47.035,16.487 50.818,20.227C50.818,20.228 50.819,20.228 50.819,20.229C54.429,23.784 56.347,28.638 56.347,33.734C56.347,37.101 54.376,42.499 52.544,45.987C52.541,45.994 52.537,46.001 52.533,46.008C51.423,48.239 50.424,50.099 49.536,51.586C49.529,51.597 49.523,51.608 49.517,51.62C45.489,58.943 43.669,66.423 42.749,72.462L42.747,72.47Z" style="fill:rgb(209,209,209);fill-rule:nonzero;"/>
        </g>
    </g>
</svg>
