<?xml version="1.0" encoding="UTF-8" standalone="no"?>
<!DOCTYPE svg PUBLIC "-//W3C//DTD SVG 1.1//EN" "http://www.w3.org/Graphics/SVG/1.1/DTD/svg11.dtd">
<svg width="100%" height="100%" viewBox="0 0 100 100" version="1.1" xmlns="http://www.w3.org/2000/svg" xmlns:xlink="http://www.w3.org/1999/xlink" xml:space="preserve" xmlns:serif="http://www.serif.com/" style="fill-rule:evenodd;clip-rule:evenodd;stroke-linejoin:round;stroke-miterlimit:2;">
    <g>
        <g transform="matrix(-0.296676,1.28478,-1.28478,-0.296676,129.485,-0.379599)">
            <path d="M44.929,42.412C36.494,41.881 37.908,47.322 19.258,50C28.55,53.856 36.42,58.74 44.929,57.588C49.079,57.026 52.517,54.188 52.517,50C52.517,45.812 49.117,42.412 44.929,42.412Z" style="fill:rgb(209,209,209);"/>
        </g>
        <g transform="matrix(-0.296676,1.28478,-1.28478,-0.296676,137.379,37.5742)">
            <path d="M44.929,42.412C36.494,41.881 37.908,47.322 19.258,50C28.55,53.856 36.42,58.74 44.929,57.588C49.079,57.026 52.517,54.188 52.517,50C52.517,45.812 49.117,42.412 44.929,42.412Z" style="fill:rgb(209,209,209);"/>
        </g>
        <g transform="matrix(-0.296676,1.28478,-1.28478,-0.296676,106.829,28.8745)">
            <path d="M44.929,42.412C36.494,41.881 37.908,47.322 19.258,50C28.55,53.856 36.42,58.74 44.929,57.588C49.079,57.026 52.517,54.188 52.517,50C52.517,45.812 49.117,42.412 44.929,42.412Z" style="fill:rgb(209,209,209);"/>
        </g>
    </g>
</svg>
