<?xml version="1.0" encoding="UTF-8" standalone="no"?>
<!DOCTYPE svg PUBLIC "-//W3C//DTD SVG 1.1//EN" "http://www.w3.org/Graphics/SVG/1.1/DTD/svg11.dtd">
<svg width="100%" height="100%" viewBox="0 0 100 100" version="1.1" xmlns="http://www.w3.org/2000/svg" xmlns:xlink="http://www.w3.org/1999/xlink" xml:space="preserve" xmlns:serif="http://www.serif.com/" style="fill-rule:evenodd;clip-rule:evenodd;stroke-linejoin:round;stroke-miterlimit:2;">
    <g transform="matrix(1,0,0,1,-11.9022,0)">
        <path d="M42.942,5.753L42.965,5.753L43.482,5.757C67.239,6.062 86.463,25.754 86.463,50C86.463,74.246 67.239,93.938 43.482,94.243L42.965,94.247L42.942,94.247L42.92,94.247C41.044,94.247 39.52,92.723 39.52,90.847C39.52,88.97 41.044,87.447 42.92,87.447C42.963,87.447 43.005,87.448 43.047,87.449C63.286,87.379 79.666,70.609 79.666,50C79.666,29.391 63.286,12.621 43.047,12.551C43.005,12.552 42.963,12.553 42.92,12.553C41.044,12.553 39.52,11.03 39.52,9.153C39.52,7.277 41.044,5.753 42.92,5.753L42.942,5.753ZM42.92,23.521C41.044,23.521 39.52,21.997 39.52,20.121C39.52,18.244 41.044,16.721 42.92,16.721C43.372,16.721 43.803,16.809 44.197,16.969C61.552,17.649 75.465,32.174 75.465,50C75.465,68.118 61.093,82.825 43.34,83.053L42.964,83.056C42.957,83.056 42.95,83.056 42.942,83.056L42.92,83.056C41.044,83.056 39.52,81.533 39.52,79.656C39.52,77.78 41.044,76.256 42.92,76.256C42.962,76.256 43.003,76.257 43.044,76.258C57.214,76.19 68.668,64.434 68.668,50C68.668,35.524 57.147,23.741 42.92,23.741L42.92,23.521ZM42.92,27.912C42.95,27.912 42.98,27.912 43.009,27.913L43.481,27.919C55.219,28.22 64.687,37.983 64.687,50C64.687,62.017 55.219,71.78 43.481,72.081L43.009,72.087C42.98,72.088 42.95,72.088 42.92,72.088C41.044,72.088 39.52,70.565 39.52,68.688C39.52,66.812 41.044,65.288 42.92,65.288C42.96,65.288 43,65.289 43.039,65.291C51.262,65.225 57.889,58.383 57.889,50C57.889,41.617 51.262,34.775 43.039,34.709C43,34.711 42.96,34.712 42.92,34.712C41.044,34.712 39.52,33.188 39.52,31.312C39.52,29.435 41.044,27.912 42.92,27.912ZM44.929,42.412C40.741,42.412 37.341,45.812 37.341,50C37.341,54.188 40.741,57.588 44.929,57.588C49.117,57.588 52.517,54.188 52.517,50C52.517,45.812 49.117,42.412 44.929,42.412Z" style="fill:rgb(209,209,209);"/>
    </g>
</svg>
