<?xml version="1.0" encoding="UTF-8" standalone="no"?>
<!DOCTYPE svg PUBLIC "-//W3C//DTD SVG 1.1//EN" "http://www.w3.org/Graphics/SVG/1.1/DTD/svg11.dtd">
<svg width="100%" height="100%" viewBox="0 0 100 100" version="1.1" xmlns="http://www.w3.org/2000/svg" xmlns:xlink="http://www.w3.org/1999/xlink" xml:space="preserve" xmlns:serif="http://www.serif.com/" style="fill-rule:evenodd;clip-rule:evenodd;stroke-linejoin:round;stroke-miterlimit:2;">
    <g>
        <g transform="matrix(0.870987,0.556136,-0.53405,0.836399,36.4646,-23.2482)">
            <path d="M24.277,32.791L24.277,76.696C24.277,90.92 35.776,102.519 50,102.519C64.224,102.519 75.723,90.92 75.723,76.696L75.723,32.791C75.723,18.567 64.224,6.968 50,6.968C35.776,6.968 24.277,18.567 24.277,32.791ZM29.115,32.791C29.115,21.291 38.5,12.006 50,12.006C61.5,12.006 70.885,21.291 70.885,32.791C70.885,32.791 70.885,76.696 70.885,76.696C70.885,88.196 61.5,97.481 50,97.481C38.5,97.481 29.115,88.196 29.115,76.696C29.115,76.696 29.115,32.791 29.115,32.791Z" style="fill:rgb(209,209,209);"/>
        </g>
        <g transform="matrix(0.689975,0.765192,-0.7535,0.650638,84.0313,1.10998)">
            <path d="M8.819,38.362C8.819,38.362 12.351,36.042 16.264,38.567C17.423,39.315 18.972,38.981 19.72,37.821C20.468,36.662 20.134,35.113 18.974,34.365C12.164,29.971 6.012,34.224 6.012,34.224C4.87,34.999 4.572,36.555 5.347,37.697C6.121,38.838 7.677,39.136 8.819,38.362Z" style="fill:rgb(209,209,209);"/>
        </g>
        <g transform="matrix(0.970785,0.34792,-0.318443,0.942232,44.6164,8.9528)">
            <path d="M8.819,38.362C8.819,38.362 12.351,36.042 16.264,38.567C17.423,39.315 18.972,38.981 19.72,37.821C20.468,36.662 20.134,35.113 18.974,34.365C12.164,29.971 6.012,34.224 6.012,34.224C4.87,34.999 4.572,36.555 5.347,37.697C6.121,38.838 7.677,39.136 8.819,38.362Z" style="fill:rgb(209,209,209);"/>
        </g>
        <g transform="matrix(0.766485,0.691348,-0.675522,0.728621,56.8612,39.2696)">
            <path d="M8.819,38.362C8.819,38.362 12.351,36.042 16.264,38.567C17.423,39.315 18.972,38.981 19.72,37.821C20.468,36.662 20.134,35.113 18.974,34.365C12.164,29.971 6.012,34.224 6.012,34.224C4.87,34.999 4.572,36.555 5.347,37.697C6.121,38.838 7.677,39.136 8.819,38.362Z" style="fill:rgb(209,209,209);"/>
        </g>
    </g>
</svg>
