<svg xmlns="http://www.w3.org/2000/svg" viewBox="0 0 203.44 203.44"><defs><style>.cls-1{fill:#fff;}</style></defs><title>Settings</title><g id="Warstwa_2" data-name="Warstwa 2"><g id="Warstwa_1-2" data-name="Warstwa 1"><path class="cls-1" d="M203.44,122.1V81.34L180.5,75.6a82.14,82.14,0,0,0-4.6-11.11L188.06,44.2,159.24,15.39,139,27.55a81.57,81.57,0,0,0-11.12-4.61L122.1,0H81.34L75.6,22.94a80.92,80.92,0,0,0-11.11,4.61L44.2,15.39,15.39,44.2,27.55,64.49A80.92,80.92,0,0,0,22.94,75.6L0,81.34V122.1l22.94,5.74A81.57,81.57,0,0,0,27.55,139L15.39,159.24,44.2,188.06,64.49,175.9a82.14,82.14,0,0,0,11.11,4.6l5.74,22.94H122.1l5.74-22.94A82.81,82.81,0,0,0,139,175.9l20.28,12.16,28.82-28.82L175.9,139a82.81,82.81,0,0,0,4.6-11.12Zm-56.72-1.74-26.36,26.36H83.08L56.72,120.36V83.08L83.08,56.72h37.28l26.36,26.36Z"/></g></g></svg>