<svg xmlns="http://www.w3.org/2000/svg" width="385.115" height="385.115" viewBox="0 0 385.115 385.115">
  <title>Breed Sprite Kit</title>
  <g>
    <g>
      <path d="M172.073,220.743c4.986,10.1,35.982,10.1,40.968,0,14.149-28.66,19.76-59.341,12.9-68.413-6.451-8.533-33.387-8.8-33.387-8.8s-26.936.271-33.386,8.8C152.313,161.4,157.924,192.083,172.073,220.743Z" fill="#fff"/>
      <g>
        <path d="M261.326,85.276c-7.687-13.64-21.8-14.895-30.933-3.277a51.4,51.4,0,0,0-3.681,5.311,39.114,39.114,0,0,0-1.513-7.79,9.534,9.534,0,0,0,.193-9.994s-.008,3.812-1.879,5.584c-5.849-12.38-17.846-16.613-25.065-18.059,1.074-2.462,3.428-5.4,8.594-5.359,0,0-8.7-6.084-13.881,3.718-.483-4.334-.193-11.431,5.637-15.548,0,0-13.628.519-14.449,17.72-7.257,1.851-17.486,6.4-22.747,17.529-1.872-1.772-1.88-5.585-1.88-5.585a9.536,9.536,0,0,0,.185,9.981,39.119,39.119,0,0,0-1.5,7.8A51.689,51.689,0,0,0,154.721,82c-9.129-11.618-23.246-10.363-30.933,3.277-.744,1.32.03,3.145,1.307,3.127a8.552,8.552,0,0,1,7.08,2.954c3.474,4.423,11.879,20.467,19.152,21.084a6.93,6.93,0,0,0,.707-.006,19.429,19.429,0,0,0-.349,3.691c0,10.176,18.215,18.07,40.872,18.07s40.872-7.894,40.872-18.07a19.429,19.429,0,0,0-.349-3.691,6.95,6.95,0,0,0,.708.006c7.273-.617,15.677-16.661,19.152-21.084a8.55,8.55,0,0,1,7.079-2.954C261.3,88.421,262.07,86.6,261.326,85.276Zm-69.409,18.285a4.573,4.573,0,0,1,1.28,0c1.8.229,6.832,1.062,6.832,3.1,0,2.463-3.875,5.215-7.472,5.215s-7.484-2.752-7.484-5.215C185.073,104.623,190.107,103.79,191.917,103.561ZM142.98,98.938c-3.394-4.8-4.184-13.092-10.284-15.807a.643.643,0,0,1,0-1.114c3.308-1.272,11.883-3.364,18.771,5.4,8.727,11.108,3.838,13.422,2.141,14.861C150,105.345,146.616,104.08,142.98,98.938Zm20.993-7.772c2.065-5.988,8.221-9.3,13.725-7.388s8.3,8.3,6.241,14.292-8.209,9.3-13.725,7.387S161.909,97.153,163.973,91.166Zm28.584,34.2c-14.461,0-19.6-10.068-19.6-10.068,12.409,2.511,14.666,4.757,19.6,4.757s7.194-2.246,19.591-4.757C212.148,115.293,207.018,125.361,192.557,125.361Zm22.343-19.9c-5.516,1.908-11.66-1.4-13.736-7.387s.724-12.385,6.24-14.292,11.661,1.4,13.725,7.388S220.405,103.55,214.9,105.457Zm37.519-22.326c-6.1,2.715-6.891,11.008-10.284,15.807-3.637,5.142-7.015,6.407-10.627,3.342-1.7-1.439-6.586-3.753,2.142-14.861,6.888-8.766,15.462-6.674,18.771-5.4A.644.644,0,0,1,252.419,83.131Z" fill="#fff"/>
        <path d="M179.388,98.686a7.823,7.823,0,0,0,.425-2.425,3.671,3.671,0,0,1-2.121.7c-2.277,0-4.123-2.153-4.123-4.808a5.312,5.312,0,0,1,.794-2.815,7.138,7.138,0,0,0-7.674,4.962,7.009,7.009,0,0,0,3.972,9.077C174.161,104.6,178.072,102.488,179.388,98.686Z" fill="#fff"/>
        <path d="M216.486,96.965c-2.277,0-4.123-2.153-4.123-4.808a5.344,5.344,0,0,1,.744-2.745,6.3,6.3,0,0,0-3.421.184,7.038,7.038,0,0,0-3.972,9.09c1.316,3.8,5.227,5.914,8.74,4.695a6.826,6.826,0,0,0,4.35-7.249A3.708,3.708,0,0,1,216.486,96.965Z" fill="#fff"/>
      </g>
      <g>
        <g>
          <g>
            <path d="M181.237,246.18c-1.079,3.977-17.157,35.856-23.446,34.149s-8.491-25.936-3.362-37.372,10.842-12.588,19.018-10.369S182.773,240.52,181.237,246.18Z" fill="#fff"/>
            <path d="M146.056,285.679c-3.059,1.753-4.782,9.6-7.912,13.1s-12.992,5.733-12.151,14.675,6.283,10.963,12.37,12.615,14.058-1.632,17.043-10.625,6.65-26.515.331-29.318C149.972,283.57,147.991,284.57,146.056,285.679Z" fill="#fff"/>
            <path d="M121.946,330.848c-5.154-.584-12.815-.446-17.858,4.2a3.987,3.987,0,0,0,1.025,6.537L131.929,354.1a3.97,3.97,0,0,0,5.222-1.778c1.989-3.929,3.706-10.77-3.636-16.751A22.207,22.207,0,0,0,121.946,330.848Z" fill="#fff"/>
          </g>
          <g>
            <path d="M143.7,159.861c-7.585-7.767-25.779-4.979-34.86-3.276s-16.757-1.593-32.568-.344S64.716,170.279,70.44,172.98s28.589-5.018,36.532-3.556,29.283,8.919,36.812,3.871C148.356,170.229,149.02,165.314,143.7,159.861Z" fill="#fff"/>
            <path d="M55.9,158.855c3.55,3.206,6.349,8.981,2.031,13.239-3.792,3.74-23.244,4.878-26.651,2.865s-5.419-14.71,3.871-14.71,10.22-.194,10.22-.194-2.092-2.017-1.664-3.793C44.439,153.2,50.1,153.617,55.9,158.855Z" fill="#fff"/>
          </g>
          <g opacity="0.5">
            <path d="M147.427,158.877c-2.6-10.541-19.694-17.363-28.384-20.5s-13.636-9.87-27.9-16.811-17.075,6.241-13.511,11.472,27.185,10.172,33.29,15.459,20.716,22.537,29.765,22C146.187,170.176,149.251,166.276,147.427,158.877Z" fill="#fff"/>
            <path d="M72.263,113.49c1.434,4.562.918,10.959-4.962,12.44-5.166,1.3-22.508-7.582-24.423-11.045s2.788-15.426,10.8-10.715,8.907,5.015,8.907,5.015-.78-2.8.489-4.114C65.253,102.808,69.921,106.034,72.263,113.49Z" fill="#fff"/>
          </g>
          <g opacity="0.5">
            <path d="M186.116,244.508c.594,4.079-1.46,39.723-7.908,40.662s-18.117-20.409-17.967-32.943,4.934-15.864,13.317-17.084S185.271,238.705,186.116,244.508Z" fill="#fff"/>
            <path d="M169.574,294.75c-2.108,2.827-.566,10.7-2.041,15.169s-9.635,10.433-5.3,18.3,10.129,7.554,16.371,6.646,12.245-7.1,11.4-16.533-4.458-26.97-11.371-27.025C172.326,291.256,170.907,292.963,169.574,294.75Z" fill="#fff"/>
            <path d="M165.305,343.764c-4.933,1.6-11.848,4.9-14.511,11.227a3.986,3.986,0,0,0,3.642,5.524l29.59.272a3.969,3.969,0,0,0,4.016-3.782c.182-4.4-1.091-11.337-10.252-13.737A22.205,22.205,0,0,0,165.305,343.764Z" fill="#fff"/>
          </g>
        </g>
        <g>
          <g>
            <path d="M203.877,246.18c1.08,3.977,17.157,35.856,23.446,34.149s8.492-25.936,3.363-37.372-10.843-12.588-19.019-10.369S202.342,240.52,203.877,246.18Z" fill="#fff"/>
            <path d="M239.058,285.679c3.059,1.753,4.782,9.6,7.912,13.1s12.993,5.733,12.151,14.675-6.283,10.963-12.37,12.615-14.058-1.632-17.043-10.625-6.65-26.515-.331-29.318C235.142,283.57,237.124,284.57,239.058,285.679Z" fill="#fff"/>
            <path d="M263.124,330.846c5.151-.61,12.812-.511,17.879,4.114a3.986,3.986,0,0,1-.992,6.542l-26.753,12.646a3.969,3.969,0,0,1-5.231-1.752c-2.008-3.918-3.76-10.75,3.552-16.769A22.217,22.217,0,0,1,263.124,330.846Z" fill="#fff"/>
          </g>
          <g>
            <path d="M241.418,159.861c7.585-7.767,25.779-4.979,34.86-3.276s16.757-1.593,32.568-.344,11.552,14.038,5.828,16.739-28.589-5.018-36.531-3.556-29.284,8.919-36.813,3.871C236.758,170.229,236.094,165.314,241.418,159.861Z" fill="#fff"/>
            <path d="M329.217,158.855c-3.549,3.206-6.349,8.981-2.031,13.239,3.793,3.74,23.244,4.878,26.651,2.865s5.419-14.71-3.871-14.71-10.22-.194-10.22-.194,2.092-2.017,1.665-3.793C340.675,153.2,335.017,153.617,329.217,158.855Z" fill="#fff"/>
          </g>
          <g opacity="0.5">
            <path d="M237.687,158.877c2.6-10.541,19.694-17.363,28.385-20.5s13.635-9.87,27.9-16.811,17.074,6.241,13.511,11.472-27.186,10.172-33.29,15.459-20.717,22.537-29.766,22C238.928,170.176,235.863,166.276,237.687,158.877Z" fill="#fff"/>
            <path d="M312.851,113.49c-1.434,4.562-.918,10.959,4.963,12.44,5.165,1.3,22.507-7.582,24.423-11.045s-2.788-15.426-10.8-10.715-8.906,5.015-8.906,5.015.78-2.8-.489-4.114C319.861,102.808,315.194,106.034,312.851,113.49Z" fill="#fff"/>
          </g>
          <g opacity="0.5">
            <path d="M199,244.508c-.594,4.079,1.459,39.723,7.907,40.662s18.118-20.409,17.967-32.943-4.933-15.864-13.316-17.084S199.844,238.705,199,244.508Z" fill="#fff"/>
            <path d="M215.541,294.75c2.108,2.827.565,10.7,2.04,15.169s9.635,10.433,5.3,18.3-10.129,7.554-16.37,6.646-12.246-7.1-11.4-16.533,4.459-26.97,11.372-27.025C212.789,291.256,214.208,292.963,215.541,294.75Z" fill="#fff"/>
            <path d="M219.81,343.764c4.932,1.6,11.847,4.9,14.51,11.227a3.986,3.986,0,0,1-3.642,5.524l-29.59.272a3.969,3.969,0,0,1-4.016-3.782c-.181-4.4,1.091-11.337,10.252-13.737A22.209,22.209,0,0,1,219.81,343.764Z" fill="#fff"/>
          </g>
        </g>
      </g>
    </g>
    <path d="M192.557,385.115A192.557,192.557,0,0,1,56.4,56.4,192.557,192.557,0,1,1,328.716,328.716,191.3,191.3,0,0,1,192.557,385.115Zm0-374.615C92.171,10.5,10.5,92.171,10.5,192.557S92.171,374.615,192.557,374.615s182.057-81.671,182.057-182.058S292.944,10.5,192.557,10.5Z" fill="#fff"/>
  </g>
</svg>
