<svg xmlns="http://www.w3.org/2000/svg" width="402.709" height="399.607" viewBox="0 0 402.709 399.607">
  <title>Minimal genetics editing_1</title>
  <g>
    <g>
      <path d="M222.019,94.054c-17.354-38.6,8.123-73.582,9.331-75.2L206.489,0c-1.564,2.056-38.039,50.99-12.926,106.847,20,44.482-6.278,72.62-9.34,75.681-4.8,4.8-24.691,19.62-78.9,8.566C56.764,181.194,25.6,180.684,0,206.29l22.062,22.062c14.427-14.429,31.7-15.927,77.026-6.686,48.271,9.84,86.344,3.775,107.2-17.076C210.905,199.97,250.6,157.618,222.019,94.054Z" fill="#fff"/>
      <path d="M109.35,195.124c-11.055-54.213,3.761-74.1,8.566-78.9,3.061-3.062,31.2-29.338,75.681-9.339,55.857,25.113,104.792-11.361,106.847-12.927l-18.9-24.825c-.356.272-36.032,26.885-75.154,9.3C142.821,49.846,100.473,89.538,95.854,94.158,75,115.011,68.936,153.083,78.778,201.357c9.24,45.322,7.741,62.6-6.686,77.024l22.062,22.062C119.759,274.839,119.247,243.675,109.35,195.124Z" fill="#fff"/>
      <g>
        <path d="M208.522,164.013,136.431,91.921c-6.093-6.092-13.944-8.12-17.534-4.528s-1.565,11.442,4.527,17.535l72.092,72.092a22.093,22.093,0,0,0,9.705,5.895c3.172.819,6.034.428,7.829-1.368C216.642,177.956,214.615,170.105,208.522,164.013Z" fill="#fff"/>
        <path d="M178.6,193.933l-72.091-72.092c-6.094-6.092-13.944-8.12-17.535-4.527s-1.565,11.441,4.528,17.534L165.6,206.94a22.089,22.089,0,0,0,9.705,5.9c3.172.819,6.034.428,7.83-1.367C186.721,207.876,184.694,200.026,178.6,193.933Z" fill="#fff"/>
      </g>
    </g>
    <path d="M348.242,163.031a67.106,67.106,0,0,0-71.427,15.2L181.338,273.71a67.106,67.106,0,0,0-15.2,71.427h0a36.228,36.228,0,0,0,8.215,12.661l4.546,4.545,34.517,34.517c3.465,3.466,8.869,3.679,12.066.482a7.856,7.856,0,0,0,2.255-5.934,9.217,9.217,0,0,0-2.742-6.126l-34.93-34.93a4.184,4.184,0,0,1,0-5.919v0a4.186,4.186,0,0,1,5.919,0l34.93,34.93c3.465,3.465,8.866,3.682,12.063.485s2.98-8.6-.485-12.063l-34.93-34.93a4.186,4.186,0,0,1,0-5.919h0a4.186,4.186,0,0,1,5.919,0l34.93,34.93c3.465,3.465,8.866,3.682,12.063.485s2.98-8.6-.485-12.063l-34.93-34.93a4.186,4.186,0,0,1,0-5.919h0a4.186,4.186,0,0,1,5.919,0l34.93,34.93c3.465,3.465,8.866,3.682,12.063.485h0c3.2-3.2,2.98-8.6-.485-12.063l-34.93-34.93a4.186,4.186,0,0,1,0-5.919h0a4.186,4.186,0,0,1,5.919,0l34.93,34.93c3.465,3.465,8.866,3.682,12.063.485s2.98-8.6-.485-12.063l-34.93-34.93a4.186,4.186,0,0,1,0-5.919h0a4.186,4.186,0,0,1,5.919,0l34.93,34.93c3.465,3.465,8.866,3.682,12.063.485s2.98-8.6-.485-12.063l-34.93-34.93a4.183,4.183,0,0,1,0-5.918h0a4.184,4.184,0,0,1,5.919,0l34.93,34.929c3.465,3.466,8.865,3.683,12.063.485s2.98-8.6-.485-12.063l-34.93-34.93a4.183,4.183,0,0,1,0-5.918h0a4.184,4.184,0,0,1,5.919,0l34.929,34.93c3.466,3.465,8.866,3.682,12.064.484h0c3.2-3.2,2.98-8.6-.485-12.063l-34.93-34.929a4.184,4.184,0,0,1,0-5.919h0a4.184,4.184,0,0,1,5.919,0l34.929,34.93c3.465,3.465,8.866,3.682,12.063.485s2.981-8.6-.484-12.064l-34.93-34.929a4.184,4.184,0,0,1,0-5.919h0a4.184,4.184,0,0,1,5.919,0l34.929,34.93c3.465,3.465,8.866,3.682,12.063.485s2.981-8.6-.484-12.063l-34.93-34.93a4.184,4.184,0,0,1,0-5.919h0a4.186,4.186,0,0,1,5.919,0l34.93,34.93c3.466,3.465,8.864,3.684,12.061.487a7.856,7.856,0,0,0,2.255-5.934,9.191,9.191,0,0,0-2.737-6.132L365.453,175.8l-4.6-4.6a35.9,35.9,0,0,0-12.5-8.122Z" fill="#fff"/>
  </g>
</svg>
