<svg xmlns="http://www.w3.org/2000/svg" width="432.455" height="356.969" viewBox="0 0 432.455 356.969">
  <title>Link to text of Blender script</title>
  <g>
    <path d="M401.054,129.423a.031.031,0,0,0-.016-.016,139.989,139.989,0,0,0-19.29-19.389.252.252,0,0,0-.025-.021q-2.51-2.069-5.11-4.019c-.05-.042-.1-.079-.158-.12L248.346,5.084A23.751,23.751,0,0,0,218.98,42.422l45.437,35.743H86.387a23.751,23.751,0,0,0,0,47.5h86.8L10.089,255.394A26.722,26.722,0,0,0,43.357,297.22l110.534-87.915q-.242,4.1-.244,8.262a139.4,139.4,0,1,0,247.407-88.144ZM218.561,250.348H195.219V227.994h23.342Zm55.108,2.364a32.663,32.663,0,0,1-17.03-4.64v27.5H232.85V180.488h16.364l3.014,5.55a32.367,32.367,0,0,1,21.441-7.84c21.361,0,36.631,15.455,36.631,37.22S295.03,252.712,273.669,252.712Zm88.067-5.473c-9.417,21.381-18.072,29.1-36.11,29.1h-8.24V255.668H324c9.206,0,11.982-2.4,15.242-11.091l-28.868-64.089h26.148l14.826,38.484,13.815-38.484h25.851Z" fill="#fff"/>
    <ellipse cx="270.45" cy="215.417" rx="15.638" ry="15.987" fill="#fff"/>
  </g>
</svg>
