<svg xmlns="http://www.w3.org/2000/svg" width="435.659" height="376.219" viewBox="0 0 435.659 376.219">
  <title>Reslotting</title>
  <g>
    <g>
      <g>
        <path d="M66.37,78.845H33.005L27.791,94.133H0L36.977,0h25.35l37.787,94.133H71.558ZM49.635,29.382,39.32,58.551H60.042Z" fill="#fff"/>
        <path d="M182.95,21.439V94.057H163.614l-2.142-5.136a34.4,34.4,0,0,1-21.911,7.592c-22.205,0-38.078-16.2-38.078-38.767,0-22.489,15.873-38.5,38.078-38.5a34.447,34.447,0,0,1,22.188,7.8l2.56-5.616ZM159.16,57.805c0-9.426-6.886-16.505-16.255-16.505-9.426,0-16.256,7.079-16.256,16.505,0,9.482,6.887,16.561,16.256,16.561S159.16,67.287,159.16,57.805Z" fill="#fff"/>
        <path d="M232.171,4.706V94.133H208.08V24.972H194.823V4.706Z" fill="#fff"/>
      </g>
      <g>
        <path d="M66.37,218.7H33.005l-5.214,15.288H0l36.977-94.133h25.35l37.787,94.133H71.558ZM49.635,169.235,39.32,198.4H60.042Z" fill="#fff"/>
        <path d="M182.95,161.292V233.91H163.614l-2.142-5.136a34.391,34.391,0,0,1-21.911,7.592c-22.205,0-38.078-16.2-38.078-38.767,0-22.489,15.873-38.5,38.078-38.5a34.453,34.453,0,0,1,22.188,7.8l2.56-5.617Zm-23.79,36.366c0-9.426-6.886-16.5-16.255-16.5-9.426,0-16.256,7.079-16.256,16.5,0,9.482,6.887,16.561,16.256,16.561S159.16,207.14,159.16,197.658Z" fill="#fff"/>
        <path d="M260.97,212.776v21.21H194.458v-5.443c35.981-42.439,40.937-49.3,40.937-56.974,0-4.849-3.2-8.1-7.776-8.1-5.019,0-8.08,3.385-8.08,8.768v1.729H195.9v-1.655c0-18.081,11.852-30.033,31.431-30.033,18.97,0,32.067,11.663,32.067,28.452,0,11.253-4.163,19.892-23.29,42.046Z" fill="#fff"/>
      </g>
      <g>
        <path d="M66.37,358.551H33.005l-5.214,15.288H0l36.977-94.133h25.35l37.787,94.133H71.558ZM49.635,309.088,39.32,338.257H60.042Z" fill="#fff"/>
        <path d="M182.95,301.146v72.617H163.614l-2.142-5.136a34.4,34.4,0,0,1-21.911,7.592c-22.205,0-38.078-16.2-38.078-38.767,0-22.489,15.873-38.5,38.078-38.5a34.447,34.447,0,0,1,22.188,7.8l2.56-5.616Zm-23.79,36.365c0-9.426-6.886-16.505-16.255-16.505-9.426,0-16.256,7.079-16.256,16.505,0,9.482,6.887,16.561,16.256,16.561S159.16,346.993,159.16,337.511Z" fill="#fff"/>
        <path d="M241.041,317.254c12.821,3.217,21.024,13.6,21.024,27.445,0,18.187-14.094,31.211-33.715,31.211-19.218,0-32.429-12.544-32.967-31.056h22.954c.268,6.3,4.188,10.493,10.069,10.493,6.114,0,10.4-4.5,10.4-11.035s-4.442-10.591-11.4-10.591H213.08v-4.984L227.643,304.8H197.627V284.412H258.99v4.109l-17.95,28.733Z" fill="#fff"/>
      </g>
    </g>
    <g>
      <rect x="331.106" y="96.47" width="68.891" height="245.253" fill="#fff"/>
      <path d="M395.418,0V61.262L365.552,78.505,335.685,61.262V0a70.108,70.108,0,1,0,59.733,0Z" fill="#fff"/>
      <polygon points="379.82 307.327 351.284 307.327 331.106 327.505 331.106 356.041 351.284 376.219 379.82 376.219 399.997 356.041 399.997 327.505 379.82 307.327" fill="#fff"/>
    </g>
  </g>
</svg>
