<svg id="Warstwa_1" data-name="Warstwa 1" xmlns="http://www.w3.org/2000/svg" xmlns:xlink="http://www.w3.org/1999/xlink" viewBox="0 0 100 100"><defs><style>.cls-1{fill:#fff;}.cls-2{mask:url(#mask);}.cls-3{fill:none;stroke:#d1d1d1;stroke-linecap:round;stroke-linejoin:round;stroke-width:5px;}</style><mask id="mask" x="6.1" y="5.78" width="74.79" height="75.11" maskUnits="userSpaceOnUse"><path class="cls-1" d="M35,80l-.67-5.89L45.78,63.33l8.44-4.89,10.56-1.11,8.66,1.11,7.45-15.55L75.56,8.56,26.67,6.11,6.56,5.78S6,60.56,6.11,61.89s0,19,0,19Z"/></mask></defs><g class="cls-2"><polyline class="cls-3" points="62.23 33.87 62.23 74.11 12.67 74.11 12.67 11.39 39.92 11.39"/><polygon class="cls-3" points="62.24 33.54 40.09 11.39 40.09 33.54 62.24 33.54"/><line class="cls-3" x1="49.79" y1="60.63" x2="25.11" y2="60.63"/><line class="cls-3" x1="49.79" y1="47.03" x2="25.11" y2="47.03"/></g><circle class="cls-3" cx="62.23" cy="74.11" r="8.33"/><path class="cls-3" d="M90.14,74.11S77.65,91.44,62.23,91.44,34.31,74.11,34.31,74.11s12.5-17.33,27.92-17.33S90.14,74.11,90.14,74.11Z"/></svg>