<svg id="Warstwa_1" data-name="Warstwa 1" xmlns="http://www.w3.org/2000/svg" viewBox="0 0 100 100"><defs><style>.cls-1{fill:none;stroke:#d1d1d1;stroke-linecap:round;stroke-linejoin:round;stroke-width:5px;}</style></defs><path class="cls-1" d="M15.62,21.19H57.84a0,0,0,0,1,0,0V55.57A11.11,11.11,0,0,1,46.73,66.68h-20A11.11,11.11,0,0,1,15.62,55.57V21.19a0,0,0,0,1,0,0Z" transform="translate(41.82 -13.1) rotate(45)"/><path class="cls-1" d="M74.17,57.68a6.44,6.44,0,0,1-12.87,0c0-3.55,6.44-14.9,6.44-14.9S74.17,54.13,74.17,57.68Z"/><path class="cls-1" d="M51.61,26.66s-40.56-.27-40.73-8.77,27-5,27-5"/><polyline class="cls-1" points="59.99 35.04 91.33 35.04 91.33 90 36.73 79.34 36.73 70.28"/></svg>