<?xml version="1.0" encoding="UTF-8" standalone="no"?>
<!DOCTYPE svg PUBLIC "-//W3C//DTD SVG 1.1//EN" "http://www.w3.org/Graphics/SVG/1.1/DTD/svg11.dtd">
<svg width="100%" height="100%" viewBox="0 0 100 100" version="1.1" xmlns="http://www.w3.org/2000/svg" xmlns:xlink="http://www.w3.org/1999/xlink" xml:space="preserve" xmlns:serif="http://www.serif.com/" style="fill-rule:evenodd;clip-rule:evenodd;stroke-linecap:round;stroke-linejoin:round;stroke-miterlimit:1.5;">
    <g>
        <g transform="matrix(6.12323e-17,1,-1,6.12323e-17,100,-2.13163e-14)">
            <g transform="matrix(1.44008,1.44008,-1.44008,1.44008,4,-94.0083)">
                <path d="M50,36.195L50,50" style="fill:none;stroke:rgb(209,209,209);stroke-width:2.46px;"/>
            </g>
            <g transform="matrix(-1.44008,1.44008,-1.44008,-1.44008,148.008,50)">
                <path d="M50,36.195L50,50" style="fill:none;stroke:rgb(209,209,209);stroke-width:2.46px;"/>
            </g>
        </g>
        <g transform="matrix(6.12323e-17,1,-1,6.12323e-17,100,-2.13163e-14)">
            <g transform="matrix(-1.44008,-1.44008,1.44008,-1.44008,96,194.008)">
                <path d="M50,36.195L50,50" style="fill:none;stroke:rgb(209,209,209);stroke-width:2.46px;"/>
            </g>
            <g transform="matrix(1.44008,-1.44008,1.44008,1.44008,-48.0083,50)">
                <path d="M50,36.195L50,50" style="fill:none;stroke:rgb(209,209,209);stroke-width:2.46px;"/>
            </g>
        </g>
        <g transform="matrix(-9.82752e-19,1.1958,-0.829322,1.26295e-16,91.4661,-9.68928)">
            <path d="M11.448,50L88.384,50" style="fill:none;stroke:rgb(209,209,209);stroke-width:4.86px;"/>
        </g>
    </g>
</svg>
