<?xml version="1.0" encoding="UTF-8" standalone="no"?>
<!DOCTYPE svg PUBLIC "-//W3C//DTD SVG 1.1//EN" "http://www.w3.org/Graphics/SVG/1.1/DTD/svg11.dtd">
<svg width="100%" height="100%" viewBox="0 0 100 100" version="1.1" xmlns="http://www.w3.org/2000/svg" xmlns:xlink="http://www.w3.org/1999/xlink" xml:space="preserve" xmlns:serif="http://www.serif.com/" style="fill-rule:evenodd;clip-rule:evenodd;stroke-linejoin:round;stroke-miterlimit:2;">
    <g>
        <g id="Path_175" transform="matrix(1.79464e-16,2.93087,-2.93087,1.79464e-16,110.285,3.10616)">
            <path d="M16,23.069C13.531,23.069 11.5,25.1 11.5,27.569C11.5,30.038 13.531,32.069 16,32.069C18.469,32.069 20.5,30.038 20.5,27.569C20.5,25.1 18.469,23.069 16,23.069ZM16,25.069C17.371,25.069 18.5,26.198 18.5,27.569C18.5,28.94 17.371,30.069 16,30.069C14.629,30.069 13.5,28.94 13.5,27.569C13.5,26.198 14.629,25.069 16,25.069Z" style="fill:rgb(209,209,209);"/>
        </g>
        <g id="Path_176" transform="matrix(1.79464e-16,2.93087,-2.93087,1.79464e-16,110.285,3.10616)">
            <path d="M10,26.402C10,23.11 12.708,20.402 16,20.402C19.292,20.402 22,23.11 22,26.402C22,26.951 22.451,27.402 23,27.402C23.549,27.402 24,26.951 24,26.402C24,22.013 20.389,18.402 16,18.402C11.611,18.402 8,22.013 8,26.402C8,26.951 8.451,27.402 9,27.402C9.549,27.402 10,26.951 10,26.402Z" style="fill:rgb(209,209,209);"/>
        </g>
        <g id="Path_177" transform="matrix(1.79464e-16,2.93087,-2.93087,1.79464e-16,110.285,3.10616)">
            <path d="M6.5,25.235C6.5,20.023 10.788,15.735 16,15.735C21.212,15.735 25.5,20.023 25.5,25.235C25.5,25.784 25.951,26.235 26.5,26.235C27.049,26.235 27.5,25.784 27.5,25.235C27.5,18.926 22.309,13.735 16,13.735C9.691,13.735 4.5,18.926 4.5,25.235C4.5,25.784 4.951,26.235 5.5,26.235C6.049,26.235 6.5,25.784 6.5,25.235Z" style="fill:rgb(209,209,209);"/>
        </g>
        <g id="Path_178" transform="matrix(1.79464e-16,2.93087,-2.93087,1.79464e-16,110.285,3.10616)">
            <path d="M3,24.069C3,16.937 8.868,11.069 16,11.069C23.132,11.069 29,16.937 29,24.069C29,24.618 29.451,25.069 30,25.069C30.549,25.069 31,24.618 31,24.069C31,15.84 24.229,9.069 16,9.069C7.771,9.069 1,15.84 1,24.069C1,24.618 1.451,25.069 2,25.069C2.549,25.069 3,24.618 3,24.069Z" style="fill:rgb(209,209,209);"/>
        </g>
    </g>
</svg>
