<?xml version="1.0" encoding="UTF-8" standalone="no"?>
<!DOCTYPE svg PUBLIC "-//W3C//DTD SVG 1.1//EN" "http://www.w3.org/Graphics/SVG/1.1/DTD/svg11.dtd">
<svg width="100%" height="100%" viewBox="0 0 100 100" version="1.1" xmlns="http://www.w3.org/2000/svg" xmlns:xlink="http://www.w3.org/1999/xlink" xml:space="preserve" xmlns:serif="http://www.serif.com/" style="fill-rule:evenodd;clip-rule:evenodd;stroke-linejoin:round;stroke-miterlimit:2;">
    <g transform="matrix(1,0,0,1,0.557458,-14.84)">
        <path d="M40.54,55.446C38.254,62.352 31.742,67.34 24.074,67.34C14.504,67.34 6.734,59.57 6.734,50C6.734,40.43 14.504,32.66 24.074,32.66C30.857,32.66 36.736,36.563 39.585,42.245C39.665,42.237 39.746,42.233 39.828,42.233L89.651,42.233C90.445,42.233 91.192,42.61 91.664,43.25C92.135,43.889 92.274,44.715 92.039,45.473L89.685,53.062C89.452,53.815 88.876,54.414 88.133,54.678C87.389,54.941 86.565,54.838 85.909,54.4L81.822,51.67L76.655,54.917C75.838,55.43 74.799,55.428 73.985,54.911L69.097,51.81L63.006,54.876C62.668,55.046 62.296,55.137 61.918,55.143L40.54,55.446ZM15.932,44.214C19.125,44.214 21.717,46.807 21.717,50C21.717,53.193 19.125,55.786 15.932,55.786C12.738,55.786 10.146,53.193 10.146,50C10.146,46.807 12.738,44.214 15.932,44.214ZM40.424,44.214C40.779,45.217 41.045,46.262 41.211,47.339L75.987,47.339L75.987,44.214L40.424,44.214Z" style="fill:rgb(209,209,209);"/>
    </g>
    <g transform="matrix(-1,0,0,1,99.4425,14.84)">
        <path d="M40.54,55.446C38.254,62.352 31.742,67.34 24.074,67.34C14.504,67.34 6.734,59.57 6.734,50C6.734,40.43 14.504,32.66 24.074,32.66C30.857,32.66 36.736,36.563 39.585,42.245C39.665,42.237 39.746,42.233 39.828,42.233L89.651,42.233C90.445,42.233 91.192,42.61 91.664,43.25C92.135,43.889 92.274,44.715 92.039,45.473L89.685,53.062C89.452,53.815 88.876,54.414 88.133,54.678C87.389,54.941 86.565,54.838 85.909,54.4L81.822,51.67L76.655,54.917C75.838,55.43 74.799,55.428 73.985,54.911L69.097,51.81L63.006,54.876C62.668,55.046 62.296,55.137 61.918,55.143L40.54,55.446ZM15.932,44.214C19.125,44.214 21.717,46.807 21.717,50C21.717,53.193 19.125,55.786 15.932,55.786C12.738,55.786 10.146,53.193 10.146,50C10.146,46.807 12.738,44.214 15.932,44.214ZM40.424,44.214C40.779,45.217 41.045,46.262 41.211,47.339L75.987,47.339L75.987,44.214L40.424,44.214Z" style="fill:rgb(209,209,209);"/>
    </g>
</svg>
