<?xml version="1.0" encoding="UTF-8" standalone="no"?>
<!DOCTYPE svg PUBLIC "-//W3C//DTD SVG 1.1//EN" "http://www.w3.org/Graphics/SVG/1.1/DTD/svg11.dtd">
<svg width="100%" height="100%" viewBox="0 0 100 100" version="1.1" xmlns="http://www.w3.org/2000/svg" xmlns:xlink="http://www.w3.org/1999/xlink" xml:space="preserve" xmlns:serif="http://www.serif.com/" style="fill-rule:evenodd;clip-rule:evenodd;stroke-linecap:round;stroke-linejoin:round;stroke-miterlimit:1.5;">
    <g>
        <g transform="matrix(6.12323e-17,1,-1,6.12323e-17,75.6038,-3.38721)">
            <g transform="matrix(-1.44008,-1.44008,1.44008,-1.44008,96,194.008)">
                <path d="M50,36.195L50,50" style="fill:none;stroke:rgb(209,209,209);stroke-width:2.46px;"/>
            </g>
            <g transform="matrix(1.44008,-1.44008,1.44008,1.44008,-48.0083,50)">
                <path d="M50,36.195L50,50" style="fill:none;stroke:rgb(209,209,209);stroke-width:2.46px;"/>
            </g>
        </g>
        <g transform="matrix(-6.53658e-19,0.795361,-0.551606,8.40027e-17,53.1842,22.3157)">
            <path d="M11.448,50L88.384,50" style="fill:none;stroke:rgb(209,209,209);stroke-width:7.31px;"/>
        </g>
        <g transform="matrix(1,0,0,1,-24.3962,5.367)">
            <circle cx="50" cy="8.249" r="6.229" style="fill:rgb(209,209,209);stroke:rgb(209,209,209);stroke-width:5px;"/>
        </g>
        <g transform="matrix(63.0044,0,0,63.0044,51.5135,72.5499)">
            <path d="M0.279,-0L0.279,-0.303L0.003,-0.716L0.118,-0.716L0.259,-0.5C0.285,-0.46 0.31,-0.419 0.332,-0.379C0.354,-0.416 0.38,-0.458 0.41,-0.505L0.549,-0.716L0.659,-0.716L0.374,-0.303L0.374,-0L0.279,-0Z" style="fill:rgb(209,209,209);fill-rule:nonzero;"/>
        </g>
    </g>
</svg>
