<svg xmlns="http://www.w3.org/2000/svg" viewBox="0 0 56 27.6"><defs><style>.cls-1{fill:#fff;}</style></defs><title>cloud</title><g id="Warstwa_2" data-name="Warstwa 2"><g id="Warstwa_1-2" data-name="Warstwa 1"><path class="cls-1" d="M47.55,27.6H8.45a8.44,8.44,0,1,1,1-16.82A10.35,10.35,0,0,1,19.62,2.33a10.19,10.19,0,0,1,6.21,2.09,11.7,11.7,0,0,1,20.82,6.34,8.44,8.44,0,1,1,.9,16.84ZM8.45,12.71a6.45,6.45,0,1,0,0,12.89h39.1a6.44,6.44,0,1,0-1.62-12.68l-1.28.33,0-1.48A9.7,9.7,0,0,0,26.85,6.42l-.66,1-.87-.83a8.3,8.3,0,0,0-14,5.43l-.08,1.2-1.17-.3A6.33,6.33,0,0,0,8.45,12.71Z"/></g></g></svg>