<svg xmlns="http://www.w3.org/2000/svg" width="392.458" height="383.799" viewBox="0 0 392.458 383.799">
  <title>ATTachment file editing (body data)</title>
  <g>
    <path d="M220.727,216.318c16.92-34.275,23.631-70.967,15.429-81.816-7.714-10.205-39.927-10.529-39.927-10.529S164.016,124.3,156.3,134.5c-8.2,10.849-1.491,47.541,15.429,81.816C177.694,228.4,214.763,228.4,220.727,216.318Z" fill="#fff"/>
    <path d="M115.55,58.051c2.636-.037,6.141.574,8.466,3.533,4.156,5.289,14.207,24.476,22.9,25.214.29.024.564,0,.846-.007a23.2,23.2,0,0,0-.417,4.414c0,12.169,21.783,21.61,48.879,21.61s48.879-9.441,48.879-21.61a23.2,23.2,0,0,0-.417-4.414c.281,0,.556.031.846.007,8.7-.738,18.749-19.925,22.9-25.214,2.325-2.959,5.83-3.57,8.467-3.533,1.527.021,2.452-2.161,1.562-3.74C269.278,38,252.4,36.5,241.478,50.391a61.79,61.79,0,0,0-4.4,6.352,46.694,46.694,0,0,0-1.809-9.315,11.4,11.4,0,0,0,.231-11.952s-.01,4.558-2.247,6.678c-7-14.807-21.343-19.869-29.977-21.6,1.285-2.944,4.1-6.452,10.279-6.409,0,0-10.408-7.276-16.6,4.446-.578-5.182-.231-13.67,6.741-18.593,0,0-16.3.621-17.279,21.192-8.679,2.213-20.913,7.653-27.2,20.962-2.239-2.119-2.248-6.678-2.248-6.678a11.4,11.4,0,0,0,.221,11.936,46.827,46.827,0,0,0-1.8,9.333,61.487,61.487,0,0,0-4.4-6.354C140.063,36.5,123.18,38,113.987,54.311,113.1,55.89,114.023,58.072,115.55,58.051Zm129.822-1.177c8.238-10.484,18.492-7.981,22.449-6.461a.769.769,0,0,1,0,1.332c-7.3,3.248-8.24,13.165-12.3,18.9-4.349,6.15-8.389,7.662-12.708,4C240.782,72.925,234.934,70.158,245.372,56.874ZM196.229,102.25c-17.294,0-23.444-12.041-23.444-12.041,14.84,3,17.54,5.689,23.444,5.689s8.6-2.687,23.429-5.689C219.658,90.209,213.523,102.25,196.229,102.25Zm17.756-49.73c6.6-2.281,13.945,1.674,16.413,8.834,2.483,7.16-.866,14.811-7.449,17.092S209,76.772,206.522,69.612,207.388,54.8,213.985,52.52ZM195.464,76.178a5.445,5.445,0,0,1,1.53,0c2.151.274,8.17,1.27,8.17,3.71,0,2.945-4.633,6.236-8.935,6.236s-8.95-3.291-8.95-6.236C187.279,77.448,193.3,76.452,195.464,76.178ZM162.045,61.354c2.469-7.16,9.831-11.115,16.413-8.834,6.6,2.281,9.932,9.932,7.464,17.092s-9.816,11.115-16.414,8.834S159.577,68.514,162.045,61.354ZM124.637,50.413c3.957-1.52,14.211-4.023,22.449,6.461,10.437,13.284,4.59,16.051,2.561,17.773-4.319,3.664-8.36,2.152-12.709-4-4.058-5.739-5-15.656-12.3-18.9A.769.769,0,0,1,124.637,50.413Z" fill="#fff"/>
    <path d="M170.043,75.963c4.186,1.458,8.863-1.068,10.436-5.615a9.324,9.324,0,0,0,.509-2.9,4.382,4.382,0,0,1-2.536.843c-2.724,0-4.931-2.575-4.931-5.75a6.354,6.354,0,0,1,.949-3.367,8.536,8.536,0,0,0-9.177,5.935C163.72,69.655,165.842,74.52,170.043,75.963Z" fill="#fff"/>
    <path d="M222.415,75.963a8.163,8.163,0,0,0,5.2-8.669,4.439,4.439,0,0,1-2.772,1c-2.723,0-4.931-2.575-4.931-5.75a6.384,6.384,0,0,1,.89-3.283,7.529,7.529,0,0,0-4.092.221c-4.186,1.458-6.323,6.322-4.749,10.87S218.214,77.421,222.415,75.963Z" fill="#fff"/>
    <g>
      <g>
        <path d="M96.164,139.59c-10.86,2.037-20.04-1.905-38.948-.411S43.4,155.967,50.246,159.2s34.19-6,43.689-4.252,35.02,10.667,44.024,4.629c5.468-3.667,6.262-9.545-.1-16.065C128.783,134.219,107.025,137.554,96.164,139.59Z" fill="#fff"/>
        <polyline points="31.905 151.666 49.727 149.825 157.639 151.666" fill="none" stroke="#fff" stroke-miterlimit="10" stroke-width="6"/>
        <polyline points="180.658 218.676 175.924 242.201 178.291 306.597 174.242 366.716" fill="none" stroke="#fff" stroke-miterlimit="10" stroke-width="6"/>
        <path d="M32.854,142.306c-6.936-6.265-13.7-6.759-14.583-3.1-.511,2.124,1.991,4.537,1.991,4.537s-1.111.231-12.222.231-8.7,15.185-4.629,17.592,27.336,1.047,31.871-3.426C40.446,153.046,37.1,146.139,32.854,142.306Z" fill="#fff"/>
        <path d="M179.127,293.367c7.712-1.123,10.167-43.75,9.457-48.628-1.01-6.94-4.993-12.66-15.018-11.2s-15.746,5.442-15.926,20.431S171.416,294.49,179.127,293.367Z" fill="#fff"/>
        <path d="M179.635,300.706c-7.543-.061-9.239,1.981-10.834,4.118-2.521,3.381-.676,12.8-2.44,18.141s-11.522,12.476-6.341,21.885,12.114,9.035,19.578,7.948,14.644-8.485,13.636-19.771S187.9,300.773,179.635,300.706Z" fill="#fff"/>
        <path d="M178.628,362.847a26.563,26.563,0,0,0-14.932.593c-5.9,1.919-14.169,5.867-17.353,13.428a4.767,4.767,0,0,0,4.355,6.606l35.387.325a4.747,4.747,0,0,0,4.8-4.523C191.105,374.014,189.583,365.718,178.628,362.847Z" fill="#fff"/>
      </g>
      <g>
        <path d="M296.294,139.59c10.86,2.037,20.04-1.905,38.948-.411s13.815,16.788,6.97,20.018-34.19-6-43.689-4.252S263.5,165.612,254.5,159.574c-5.468-3.667-6.262-9.545.105-16.065C263.675,134.219,285.433,137.554,296.294,139.59Z" fill="#fff"/>
        <polyline points="360.553 151.666 342.731 149.825 234.819 151.666" fill="none" stroke="#fff" stroke-miterlimit="10" stroke-width="6"/>
        <polyline points="211.8 218.676 216.534 242.201 214.167 306.597 218.216 366.716" fill="none" stroke="#fff" stroke-miterlimit="10" stroke-width="6"/>
        <path d="M359.6,142.306c6.936-6.265,13.7-6.759,14.583-3.1.511,2.124-1.991,4.537-1.991,4.537s1.111.231,12.222.231,8.7,15.185,4.629,17.592-27.336,1.047-31.872-3.426C352.012,153.046,355.359,146.139,359.6,142.306Z" fill="#fff"/>
        <path d="M213.331,293.367c-7.712-1.123-10.167-43.75-9.457-48.628,1.01-6.94,4.993-12.66,15.018-11.2s15.746,5.442,15.925,20.431S221.042,294.49,213.331,293.367Z" fill="#fff"/>
        <path d="M212.823,300.706c7.542-.061,9.239,1.981,10.834,4.118,2.52,3.381.676,12.8,2.44,18.141s11.522,12.476,6.341,21.885-12.114,9.035-19.578,7.948-14.644-8.485-13.636-19.771S204.556,300.773,212.823,300.706Z" fill="#fff"/>
        <path d="M213.83,362.847a26.563,26.563,0,0,1,14.932.593c5.9,1.919,14.169,5.867,17.353,13.428a4.767,4.767,0,0,1-4.355,6.606l-35.388.325a4.746,4.746,0,0,1-4.8-4.523C201.353,374.014,202.875,365.718,213.83,362.847Z" fill="#fff"/>
      </g>
    </g>
  </g>
</svg>
