<svg xmlns="http://www.w3.org/2000/svg" width="347.25" height="356.969" viewBox="0 0 347.25 356.969">
  <title>Post processing of Blender renders (cropping mainly)</title>
  <g>
    <path d="M173.627,356.969a12.391,12.391,0,0,1-7.791-2.8A14.486,14.486,0,0,1,160.6,342.89V119.654a13.982,13.982,0,0,1,9.318-13.5l160.6-51.516a12.228,12.228,0,0,1,11.493,2.215,14.486,14.486,0,0,1,5.234,11.282V291.375a13.984,13.984,0,0,1-9.318,13.5l-160.6,51.515A12.1,12.1,0,0,1,173.627,356.969Zm13.021-226.807V324.027l134.557-43.16V87ZM334.227,291.375h0Z" fill="#fff"/>
    <path d="M173.624,356.969a12.087,12.087,0,0,1-3.7-.582L9.318,304.872A13.983,13.983,0,0,1,0,291.375V68.138A14.485,14.485,0,0,1,5.233,56.856a12.23,12.23,0,0,1,11.494-2.215l160.6,51.516a13.982,13.982,0,0,1,9.318,13.5V342.89a14.486,14.486,0,0,1-5.233,11.282A12.393,12.393,0,0,1,173.624,356.969Zm-147.579-76.1L160.6,324.029V130.162L26.045,87Z" fill="#fff"/>
    <path d="M173.625,133.733a12.093,12.093,0,0,1-3.788-.61L9.235,80.336a14.441,14.441,0,0,1,0-26.939L169.837.609a12.088,12.088,0,0,1,7.577,0L338.016,53.4a14.441,14.441,0,0,1,0,26.939l-160.6,52.787A12.1,12.1,0,0,1,173.625,133.733ZM57.792,66.867l115.833,38.072L289.458,66.867,173.625,28.794Z" fill="#fff"/>
    <polygon points="173.625 14.079 169.054 70.459 230.062 101.104 210.14 221.002 301.212 301.965 334.228 291.375 334.228 66.867 173.625 14.079" fill="#fff"/>
  </g>
</svg>
