<?xml version="1.0" encoding="UTF-8" standalone="no"?>
<!DOCTYPE svg PUBLIC "-//W3C//DTD SVG 1.1//EN" "http://www.w3.org/Graphics/SVG/1.1/DTD/svg11.dtd">
<svg width="100%" height="100%" viewBox="0 0 100 100" version="1.1" xmlns="http://www.w3.org/2000/svg" xmlns:xlink="http://www.w3.org/1999/xlink" xml:space="preserve" xmlns:serif="http://www.serif.com/" style="fill-rule:evenodd;clip-rule:evenodd;stroke-linejoin:round;stroke-miterlimit:1.5;">
    <g transform="matrix(5.81023e-17,0.948882,-0.948882,5.81023e-17,103.355,2.07668)">
        <path d="M-2.189,3.535L103.199,3.535" style="fill:none;stroke:rgb(209,209,209);stroke-width:5.27px;"/>
    </g>
    <g transform="matrix(5.81023e-17,0.948882,-0.948882,5.81023e-17,103.355,2.07668)">
        <path d="M-2.189,3.535L103.199,3.535" style="fill:none;stroke:rgb(209,209,209);stroke-width:5.27px;"/>
    </g>
    <g transform="matrix(5.81023e-17,0.948882,-0.948882,5.81023e-17,93.3546,2.07668)">
        <path d="M-2.189,3.535L103.199,3.535" style="fill:none;stroke:rgb(209,209,209);stroke-width:5.27px;"/>
    </g>
    <g transform="matrix(5.81023e-17,0.948882,-0.948882,5.81023e-17,83.3546,2.07668)">
        <path d="M-2.189,3.535L103.199,3.535" style="fill:none;stroke:rgb(209,209,209);stroke-width:5.27px;"/>
    </g>
    <g transform="matrix(5.70263e-17,0.93131,-0.948882,5.81023e-17,73.3546,3.89007)">
        <path d="M-2.189,3.535L103.199,3.535" style="fill:none;stroke:rgb(209,209,209);stroke-width:5.32px;"/>
    </g>
    <g transform="matrix(5.81023e-17,0.948882,-0.948882,5.81023e-17,63.3546,2.07668)">
        <path d="M-2.189,3.535L103.199,3.535" style="fill:none;stroke:rgb(209,209,209);stroke-width:5.27px;"/>
    </g>
    <g transform="matrix(5.81023e-17,0.948882,-0.948882,5.81023e-17,63.3546,2.07668)">
        <path d="M-2.189,3.535L103.199,3.535" style="fill:none;stroke:rgb(209,209,209);stroke-width:5.27px;"/>
    </g>
    <g transform="matrix(5.81023e-17,0.948882,-0.948882,5.81023e-17,53.3546,2.07668)">
        <path d="M-2.189,3.535L103.199,3.535" style="fill:none;stroke:rgb(209,209,209);stroke-width:5.27px;"/>
    </g>
    <g transform="matrix(5.81023e-17,0.948882,-0.948882,5.81023e-17,43.3546,2.07668)">
        <path d="M-2.189,3.535L103.199,3.535" style="fill:none;stroke:rgb(209,209,209);stroke-width:5.27px;"/>
    </g>
    <g transform="matrix(5.70263e-17,0.93131,-0.948882,5.81023e-17,33.3546,3.89007)">
        <path d="M-2.189,3.535L103.199,3.535" style="fill:none;stroke:rgb(209,209,209);stroke-width:5.32px;"/>
    </g>
    <g transform="matrix(5.70263e-17,0.93131,-0.948882,5.81023e-17,33.3546,3.89007)">
        <path d="M-2.189,3.535L103.199,3.535" style="fill:none;stroke:rgb(209,209,209);stroke-width:5.32px;"/>
    </g>
    <g transform="matrix(5.81023e-17,0.948882,-0.978215,5.98984e-17,33.4583,2.07668)">
        <path d="M-2.189,3.535L103.199,3.535" style="fill:none;stroke:rgb(209,209,209);stroke-width:5.19px;"/>
    </g>
    <g transform="matrix(5.81023e-17,0.948882,-0.966785,5.91985e-17,23.4179,2.07668)">
        <path d="M-2.189,3.535L103.199,3.535" style="fill:none;stroke:rgb(209,209,209);stroke-width:5.22px;"/>
    </g>
    <g transform="matrix(5.81023e-17,0.948882,-0.948882,5.81023e-17,13.3546,2.07668)">
        <path d="M-2.189,3.535L103.199,3.535" style="fill:none;stroke:rgb(209,209,209);stroke-width:5.27px;"/>
    </g>
    <g transform="matrix(5.81023e-17,0.948882,-0.948882,5.81023e-17,3.35463,2.07668)">
        <path d="M-2.189,3.535L103.199,3.535" style="fill:none;stroke:rgb(209,209,209);stroke-width:5.27px;"/>
    </g>
    <g transform="matrix(5.81023e-17,0.948882,-0.948882,5.81023e-17,103.355,2.07668)">
        <path d="M-2.189,3.535L103.199,3.535" style="fill:none;stroke:rgb(209,209,209);stroke-width:5.27px;"/>
    </g>
    <g transform="matrix(5.81023e-17,0.948882,-0.948882,5.81023e-17,103.355,2.07668)">
        <path d="M-2.189,3.535L103.199,3.535" style="fill:none;stroke:rgb(209,209,209);stroke-width:5.27px;"/>
    </g>
    <g transform="matrix(5.81023e-17,0.948882,-0.948882,5.81023e-17,93.3546,2.07668)">
        <path d="M-2.189,3.535L103.199,3.535" style="fill:none;stroke:rgb(209,209,209);stroke-width:5.27px;"/>
    </g>
    <g transform="matrix(5.81023e-17,0.948882,-0.948882,5.81023e-17,83.3546,2.07668)">
        <path d="M-2.189,3.535L103.199,3.535" style="fill:none;stroke:rgb(209,209,209);stroke-width:5.27px;"/>
    </g>
    <g transform="matrix(5.70263e-17,0.93131,-0.948882,5.81023e-17,73.3546,3.89007)">
        <path d="M-2.189,3.535L103.199,3.535" style="fill:none;stroke:rgb(209,209,209);stroke-width:5.32px;"/>
    </g>
    <g transform="matrix(5.81023e-17,0.948882,-0.948882,5.81023e-17,63.3546,2.07668)">
        <path d="M-2.189,3.535L103.199,3.535" style="fill:none;stroke:rgb(209,209,209);stroke-width:5.27px;"/>
    </g>
    <g transform="matrix(5.81023e-17,0.948882,-0.948882,5.81023e-17,63.3546,2.07668)">
        <path d="M-2.189,3.535L103.199,3.535" style="fill:none;stroke:rgb(209,209,209);stroke-width:5.27px;"/>
    </g>
    <g transform="matrix(5.81023e-17,0.948882,-0.948882,5.81023e-17,53.3546,2.07668)">
        <path d="M-2.189,3.535L103.199,3.535" style="fill:none;stroke:rgb(209,209,209);stroke-width:5.27px;"/>
    </g>
    <g transform="matrix(5.81023e-17,0.948882,-0.948882,5.81023e-17,43.3546,2.07668)">
        <path d="M-2.189,3.535L103.199,3.535" style="fill:none;stroke:rgb(209,209,209);stroke-width:5.27px;"/>
    </g>
    <g transform="matrix(5.70263e-17,0.93131,-0.948882,5.81023e-17,33.3546,3.89007)">
        <path d="M-2.189,3.535L103.199,3.535" style="fill:none;stroke:rgb(209,209,209);stroke-width:5.32px;"/>
    </g>
    <g transform="matrix(5.70263e-17,0.93131,-0.948882,5.81023e-17,33.3546,3.89007)">
        <path d="M-2.189,3.535L103.199,3.535" style="fill:none;stroke:rgb(209,209,209);stroke-width:5.32px;"/>
    </g>
    <g transform="matrix(5.81023e-17,0.948882,-0.978215,5.98984e-17,33.4583,2.07668)">
        <path d="M-2.189,3.535L103.199,3.535" style="fill:none;stroke:rgb(209,209,209);stroke-width:5.19px;"/>
    </g>
    <g transform="matrix(5.81023e-17,0.948882,-0.966785,5.91985e-17,23.4179,2.07668)">
        <path d="M-2.189,3.535L103.199,3.535" style="fill:none;stroke:rgb(209,209,209);stroke-width:5.22px;"/>
    </g>
    <g transform="matrix(5.81023e-17,0.948882,-0.948882,5.81023e-17,13.3546,2.07668)">
        <path d="M-2.189,3.535L103.199,3.535" style="fill:none;stroke:rgb(209,209,209);stroke-width:5.27px;"/>
    </g>
    <g transform="matrix(5.81023e-17,0.948882,-0.948882,5.81023e-17,3.35463,2.07668)">
        <path d="M-2.189,3.535L103.199,3.535" style="fill:none;stroke:rgb(209,209,209);stroke-width:5.27px;"/>
    </g>
    <g transform="matrix(-0.948882,1.16205e-16,-1.16205e-16,-0.948882,97.9233,103.355)">
        <path d="M-2.189,3.535L103.199,3.535" style="fill:none;stroke:rgb(209,209,209);stroke-width:5.27px;"/>
    </g>
    <g transform="matrix(-0.948882,1.16205e-16,-1.16205e-16,-0.948882,97.9233,103.355)">
        <path d="M-2.189,3.535L103.199,3.535" style="fill:none;stroke:rgb(209,209,209);stroke-width:5.27px;"/>
    </g>
    <g transform="matrix(-0.948882,1.16205e-16,-1.16205e-16,-0.948882,97.9233,93.3546)">
        <path d="M-2.189,3.535L103.199,3.535" style="fill:none;stroke:rgb(209,209,209);stroke-width:5.27px;"/>
    </g>
    <g transform="matrix(-0.948882,1.16205e-16,-1.16205e-16,-0.948882,97.9233,83.3546)">
        <path d="M-2.189,3.535L103.199,3.535" style="fill:none;stroke:rgb(209,209,209);stroke-width:5.27px;"/>
    </g>
    <g transform="matrix(-0.93131,1.14053e-16,-1.16205e-16,-0.948882,96.1099,73.3546)">
        <path d="M-2.189,3.535L103.199,3.535" style="fill:none;stroke:rgb(209,209,209);stroke-width:5.32px;"/>
    </g>
    <g transform="matrix(-0.948882,1.16205e-16,-1.16205e-16,-0.948882,97.9233,63.3546)">
        <path d="M-2.189,3.535L103.199,3.535" style="fill:none;stroke:rgb(209,209,209);stroke-width:5.27px;"/>
    </g>
    <g transform="matrix(-0.948882,1.16205e-16,-1.16205e-16,-0.948882,97.9233,63.3546)">
        <path d="M-2.189,3.535L103.199,3.535" style="fill:none;stroke:rgb(209,209,209);stroke-width:5.27px;"/>
    </g>
    <g transform="matrix(-0.948882,1.16205e-16,-1.16205e-16,-0.948882,97.9233,53.3546)">
        <path d="M-2.189,3.535L103.199,3.535" style="fill:none;stroke:rgb(209,209,209);stroke-width:5.27px;"/>
    </g>
    <g transform="matrix(-0.948882,1.16205e-16,-1.16205e-16,-0.948882,97.9233,43.3546)">
        <path d="M-2.189,3.535L103.199,3.535" style="fill:none;stroke:rgb(209,209,209);stroke-width:5.27px;"/>
    </g>
    <g transform="matrix(-0.93131,1.14053e-16,-1.16205e-16,-0.948882,96.1099,33.3546)">
        <path d="M-2.189,3.535L103.199,3.535" style="fill:none;stroke:rgb(209,209,209);stroke-width:5.32px;"/>
    </g>
    <g transform="matrix(-0.93131,1.14053e-16,-1.16205e-16,-0.948882,96.1099,33.3546)">
        <path d="M-2.189,3.535L103.199,3.535" style="fill:none;stroke:rgb(209,209,209);stroke-width:5.32px;"/>
    </g>
    <g transform="matrix(-0.948882,1.16205e-16,-1.19797e-16,-0.978215,97.9233,33.4583)">
        <path d="M-2.189,3.535L103.199,3.535" style="fill:none;stroke:rgb(209,209,209);stroke-width:5.19px;"/>
    </g>
    <g transform="matrix(-0.948882,1.16205e-16,-1.18397e-16,-0.966785,97.9233,23.4179)">
        <path d="M-2.189,3.535L103.199,3.535" style="fill:none;stroke:rgb(209,209,209);stroke-width:5.22px;"/>
    </g>
    <g transform="matrix(-0.948882,1.16205e-16,-1.16205e-16,-0.948882,97.9233,13.3546)">
        <path d="M-2.189,3.535L103.199,3.535" style="fill:none;stroke:rgb(209,209,209);stroke-width:5.27px;"/>
    </g>
    <g transform="matrix(-0.948882,1.16205e-16,-1.16205e-16,-0.948882,97.9233,3.35463)">
        <path d="M-2.189,3.535L103.199,3.535" style="fill:none;stroke:rgb(209,209,209);stroke-width:5.27px;"/>
    </g>
    <g transform="matrix(-0.948882,1.16205e-16,-1.16205e-16,-0.948882,97.9233,103.355)">
        <path d="M-2.189,3.535L103.199,3.535" style="fill:none;stroke:rgb(209,209,209);stroke-width:5.27px;"/>
    </g>
    <g transform="matrix(-0.948882,1.16205e-16,-1.16205e-16,-0.948882,97.9233,103.355)">
        <path d="M-2.189,3.535L103.199,3.535" style="fill:none;stroke:rgb(209,209,209);stroke-width:5.27px;"/>
    </g>
    <g transform="matrix(-0.948882,1.16205e-16,-1.16205e-16,-0.948882,97.9233,93.3546)">
        <path d="M-2.189,3.535L103.199,3.535" style="fill:none;stroke:rgb(209,209,209);stroke-width:5.27px;"/>
    </g>
    <g transform="matrix(-0.948882,1.16205e-16,-1.16205e-16,-0.948882,97.9233,83.3546)">
        <path d="M-2.189,3.535L103.199,3.535" style="fill:none;stroke:rgb(209,209,209);stroke-width:5.27px;"/>
    </g>
    <g transform="matrix(-0.93131,1.14053e-16,-1.16205e-16,-0.948882,96.1099,73.3546)">
        <path d="M-2.189,3.535L103.199,3.535" style="fill:none;stroke:rgb(209,209,209);stroke-width:5.32px;"/>
    </g>
    <g transform="matrix(-0.948882,1.16205e-16,-1.16205e-16,-0.948882,97.9233,63.3546)">
        <path d="M-2.189,3.535L103.199,3.535" style="fill:none;stroke:rgb(209,209,209);stroke-width:5.27px;"/>
    </g>
    <g transform="matrix(-0.948882,1.16205e-16,-1.16205e-16,-0.948882,97.9233,63.3546)">
        <path d="M-2.189,3.535L103.199,3.535" style="fill:none;stroke:rgb(209,209,209);stroke-width:5.27px;"/>
    </g>
    <g transform="matrix(-0.948882,1.16205e-16,-1.16205e-16,-0.948882,97.9233,53.3546)">
        <path d="M-2.189,3.535L103.199,3.535" style="fill:none;stroke:rgb(209,209,209);stroke-width:5.27px;"/>
    </g>
    <g transform="matrix(-0.948882,1.16205e-16,-1.16205e-16,-0.948882,97.9233,43.3546)">
        <path d="M-2.189,3.535L103.199,3.535" style="fill:none;stroke:rgb(209,209,209);stroke-width:5.27px;"/>
    </g>
    <g transform="matrix(-0.93131,1.14053e-16,-1.16205e-16,-0.948882,96.1099,33.3546)">
        <path d="M-2.189,3.535L103.199,3.535" style="fill:none;stroke:rgb(209,209,209);stroke-width:5.32px;"/>
    </g>
    <g transform="matrix(-0.93131,1.14053e-16,-1.16205e-16,-0.948882,96.1099,33.3546)">
        <path d="M-2.189,3.535L103.199,3.535" style="fill:none;stroke:rgb(209,209,209);stroke-width:5.32px;"/>
    </g>
    <g transform="matrix(-0.948882,1.16205e-16,-1.19797e-16,-0.978215,97.9233,33.4583)">
        <path d="M-2.189,3.535L103.199,3.535" style="fill:none;stroke:rgb(209,209,209);stroke-width:5.19px;"/>
    </g>
    <g transform="matrix(-0.948882,1.16205e-16,-1.18397e-16,-0.966785,97.9233,23.4179)">
        <path d="M-2.189,3.535L103.199,3.535" style="fill:none;stroke:rgb(209,209,209);stroke-width:5.22px;"/>
    </g>
    <g transform="matrix(-0.948882,1.16205e-16,-1.16205e-16,-0.948882,97.9233,13.3546)">
        <path d="M-2.189,3.535L103.199,3.535" style="fill:none;stroke:rgb(209,209,209);stroke-width:5.27px;"/>
    </g>
    <g transform="matrix(-0.948882,1.16205e-16,-1.16205e-16,-0.948882,97.9233,3.35463)">
        <path d="M-2.189,3.535L103.199,3.535" style="fill:none;stroke:rgb(209,209,209);stroke-width:5.27px;"/>
    </g>
</svg>
