<?xml version="1.0" encoding="UTF-8" standalone="no"?>
<!DOCTYPE svg PUBLIC "-//W3C//DTD SVG 1.1//EN" "http://www.w3.org/Graphics/SVG/1.1/DTD/svg11.dtd">
<svg width="100%" height="100%" viewBox="0 0 100 100" version="1.1" xmlns="http://www.w3.org/2000/svg" xmlns:xlink="http://www.w3.org/1999/xlink" xml:space="preserve" xmlns:serif="http://www.serif.com/" style="fill-rule:evenodd;clip-rule:evenodd;stroke-linejoin:round;stroke-miterlimit:1.5;">
    <g>
        <path d="M0,50L50,64.205L100,50" style="fill:none;stroke:rgb(209,209,209);stroke-width:5px;"/>
        <g transform="matrix(1,0,0,1,0,10)">
            <path d="M0,50L50,64.205L100,50" style="fill:none;stroke:rgb(209,209,209);stroke-width:5px;"/>
        </g>
        <g transform="matrix(1,0,0,1,0,20)">
            <path d="M0,50L50,64.205L100,50" style="fill:none;stroke:rgb(209,209,209);stroke-width:5px;"/>
        </g>
        <g transform="matrix(1,0,0,1,0,30)">
            <path d="M0,50L50,64.205L100,50" style="fill:none;stroke:rgb(209,209,209);stroke-width:5px;"/>
        </g>
        <g transform="matrix(1,0,0,1,0,40)">
            <path d="M0,50L50,64.205L100,50" style="fill:none;stroke:rgb(209,209,209);stroke-width:5px;"/>
        </g>
        <g transform="matrix(1,0,0,1,0,50)">
            <path d="M0,50L50,64.205L100,50" style="fill:none;stroke:rgb(209,209,209);stroke-width:5px;"/>
        </g>
        <g transform="matrix(1,0,0,1,0,-50)">
            <path d="M0,50L50,64.205L100,50" style="fill:none;stroke:rgb(209,209,209);stroke-width:5px;"/>
        </g>
        <g transform="matrix(1,0,0,1,0,-60)">
            <path d="M0,50L50,64.205L100,50" style="fill:none;stroke:rgb(209,209,209);stroke-width:5px;"/>
        </g>
        <g transform="matrix(1,0,0,1,0,-40)">
            <path d="M0,50L50,64.205L100,50" style="fill:none;stroke:rgb(209,209,209);stroke-width:5px;"/>
        </g>
        <g transform="matrix(1,0,0,1,0,-30)">
            <path d="M0,50L50,64.205L100,50" style="fill:none;stroke:rgb(209,209,209);stroke-width:5px;"/>
        </g>
        <g transform="matrix(1,0,0,1,0,-20)">
            <path d="M0,50L50,64.205L100,50" style="fill:none;stroke:rgb(209,209,209);stroke-width:5px;"/>
        </g>
        <g transform="matrix(1,0,0,1,0,-10)">
            <path d="M0,50L50,64.205L100,50" style="fill:none;stroke:rgb(209,209,209);stroke-width:5px;"/>
        </g>
        <path d="M0,50L50,64.205L100,50" style="fill:none;stroke:rgb(209,209,209);stroke-width:5px;"/>
        <g transform="matrix(1,0,0,1,0,10)">
            <path d="M0,50L50,64.205L100,50" style="fill:none;stroke:rgb(209,209,209);stroke-width:5px;"/>
        </g>
        <g transform="matrix(1,0,0,1,0,20)">
            <path d="M0,50L50,64.205L100,50" style="fill:none;stroke:rgb(209,209,209);stroke-width:5px;"/>
        </g>
        <g transform="matrix(1,0,0,1,0,30)">
            <path d="M0,50L50,64.205L100,50" style="fill:none;stroke:rgb(209,209,209);stroke-width:5px;"/>
        </g>
        <g transform="matrix(1,0,0,1,0,40)">
            <path d="M0,50L50,64.205L100,50" style="fill:none;stroke:rgb(209,209,209);stroke-width:5px;"/>
        </g>
        <g transform="matrix(1,0,0,1,0,50)">
            <path d="M0,50L50,64.205L100,50" style="fill:none;stroke:rgb(209,209,209);stroke-width:5px;"/>
        </g>
        <g transform="matrix(1,0,0,1,0,-50)">
            <path d="M0,50L50,64.205L100,50" style="fill:none;stroke:rgb(209,209,209);stroke-width:5px;"/>
        </g>
        <g transform="matrix(1,0,0,1,0,-60)">
            <path d="M0,50L50,64.205L100,50" style="fill:none;stroke:rgb(209,209,209);stroke-width:5px;"/>
        </g>
        <g transform="matrix(1,0,0,1,0,-40)">
            <path d="M0,50L50,64.205L100,50" style="fill:none;stroke:rgb(209,209,209);stroke-width:5px;"/>
        </g>
        <g transform="matrix(1,0,0,1,0,-30)">
            <path d="M0,50L50,64.205L100,50" style="fill:none;stroke:rgb(209,209,209);stroke-width:5px;"/>
        </g>
        <g transform="matrix(1,0,0,1,0,-20)">
            <path d="M0,50L50,64.205L100,50" style="fill:none;stroke:rgb(209,209,209);stroke-width:5px;"/>
        </g>
        <g transform="matrix(1,0,0,1,0,-10)">
            <path d="M0,50L50,64.205L100,50" style="fill:none;stroke:rgb(209,209,209);stroke-width:5px;"/>
        </g>
    </g>
</svg>
