<?xml version="1.0" encoding="UTF-8" standalone="no"?>
<!DOCTYPE svg PUBLIC "-//W3C//DTD SVG 1.1//EN" "http://www.w3.org/Graphics/SVG/1.1/DTD/svg11.dtd">
<svg width="100%" height="100%" viewBox="0 0 100 100" version="1.1" xmlns="http://www.w3.org/2000/svg" xmlns:xlink="http://www.w3.org/1999/xlink" xml:space="preserve" xmlns:serif="http://www.serif.com/" style="fill-rule:evenodd;clip-rule:evenodd;stroke-linejoin:round;stroke-miterlimit:1.5;">
    <g transform="matrix(0.948882,0,0,0.948882,2.07668,-3.35463)">
        <path d="M-2.189,3.535L103.199,3.535" style="fill:none;stroke:rgb(209,209,209);stroke-width:5.27px;"/>
    </g>
    <g transform="matrix(0.948882,0,0,0.948882,2.07668,-3.35463)">
        <path d="M-2.189,3.535L103.199,3.535" style="fill:none;stroke:rgb(209,209,209);stroke-width:5.27px;"/>
    </g>
    <g transform="matrix(0.948882,0,0,0.948882,2.07668,6.64537)">
        <path d="M-2.189,3.535L103.199,3.535" style="fill:none;stroke:rgb(209,209,209);stroke-width:5.27px;"/>
    </g>
    <g transform="matrix(0.948882,0,0,0.948882,2.07668,16.6454)">
        <path d="M-2.189,3.535L103.199,3.535" style="fill:none;stroke:rgb(209,209,209);stroke-width:5.27px;"/>
    </g>
    <g transform="matrix(0.93131,0,0,0.948882,3.89007,26.6454)">
        <path d="M-2.189,3.535L103.199,3.535" style="fill:none;stroke:rgb(209,209,209);stroke-width:5.32px;"/>
    </g>
    <g transform="matrix(0.948882,0,0,0.948882,2.07668,36.6454)">
        <path d="M-2.189,3.535L103.199,3.535" style="fill:none;stroke:rgb(209,209,209);stroke-width:5.27px;"/>
    </g>
    <g transform="matrix(0.948882,0,0,0.948882,2.07668,36.6454)">
        <path d="M-2.189,3.535L103.199,3.535" style="fill:none;stroke:rgb(209,209,209);stroke-width:5.27px;"/>
    </g>
    <g transform="matrix(0.948882,0,0,0.948882,2.07668,46.6454)">
        <path d="M-2.189,3.535L103.199,3.535" style="fill:none;stroke:rgb(209,209,209);stroke-width:5.27px;"/>
    </g>
    <g transform="matrix(0.948882,0,0,0.948882,2.07668,56.6454)">
        <path d="M-2.189,3.535L103.199,3.535" style="fill:none;stroke:rgb(209,209,209);stroke-width:5.27px;"/>
    </g>
    <g transform="matrix(0.93131,0,0,0.948882,3.89007,66.6454)">
        <path d="M-2.189,3.535L103.199,3.535" style="fill:none;stroke:rgb(209,209,209);stroke-width:5.32px;"/>
    </g>
    <g transform="matrix(0.93131,0,0,0.948882,3.89007,66.6454)">
        <path d="M-2.189,3.535L103.199,3.535" style="fill:none;stroke:rgb(209,209,209);stroke-width:5.32px;"/>
    </g>
    <g transform="matrix(0.948882,0,0,0.978215,2.07668,66.5417)">
        <path d="M-2.189,3.535L103.199,3.535" style="fill:none;stroke:rgb(209,209,209);stroke-width:5.19px;"/>
    </g>
    <g transform="matrix(0.948882,0,0,0.966785,2.07668,76.5821)">
        <path d="M-2.189,3.535L103.199,3.535" style="fill:none;stroke:rgb(209,209,209);stroke-width:5.22px;"/>
    </g>
    <g transform="matrix(0.948882,0,0,0.948882,2.07668,86.6454)">
        <path d="M-2.189,3.535L103.199,3.535" style="fill:none;stroke:rgb(209,209,209);stroke-width:5.27px;"/>
    </g>
    <g transform="matrix(0.948882,0,0,0.948882,2.07668,96.6454)">
        <path d="M-2.189,3.535L103.199,3.535" style="fill:none;stroke:rgb(209,209,209);stroke-width:5.27px;"/>
    </g>
    <g transform="matrix(0.948882,0,0,0.948882,2.07668,-3.35463)">
        <path d="M-2.189,3.535L103.199,3.535" style="fill:none;stroke:rgb(209,209,209);stroke-width:5.27px;"/>
    </g>
    <g transform="matrix(0.948882,0,0,0.948882,2.07668,-3.35463)">
        <path d="M-2.189,3.535L103.199,3.535" style="fill:none;stroke:rgb(209,209,209);stroke-width:5.27px;"/>
    </g>
    <g transform="matrix(0.948882,0,0,0.948882,2.07668,6.64537)">
        <path d="M-2.189,3.535L103.199,3.535" style="fill:none;stroke:rgb(209,209,209);stroke-width:5.27px;"/>
    </g>
    <g transform="matrix(0.948882,0,0,0.948882,2.07668,16.6454)">
        <path d="M-2.189,3.535L103.199,3.535" style="fill:none;stroke:rgb(209,209,209);stroke-width:5.27px;"/>
    </g>
    <g transform="matrix(0.948878,0,0,0.948882,2.07709,26.6454)">
        <path d="M-2.189,3.535L103.199,3.535" style="fill:none;stroke:rgb(209,209,209);stroke-width:5.32px;"/>
    </g>
    <g transform="matrix(0.948882,0,0,0.948882,2.07668,36.6454)">
        <path d="M-2.189,3.535L103.199,3.535" style="fill:none;stroke:rgb(209,209,209);stroke-width:5.27px;"/>
    </g>
    <g transform="matrix(0.948882,0,0,0.948882,2.07668,36.6454)">
        <path d="M-2.189,3.535L103.199,3.535" style="fill:none;stroke:rgb(209,209,209);stroke-width:5.27px;"/>
    </g>
    <g transform="matrix(0.948882,0,0,0.948882,2.07668,46.6454)">
        <path d="M-2.189,3.535L103.199,3.535" style="fill:none;stroke:rgb(209,209,209);stroke-width:5.27px;"/>
    </g>
    <g transform="matrix(0.948882,0,0,0.948882,2.07668,56.6454)">
        <path d="M-2.189,3.535L103.199,3.535" style="fill:none;stroke:rgb(209,209,209);stroke-width:5.27px;"/>
    </g>
    <g transform="matrix(0.93131,0,0,0.948882,3.89007,66.6454)">
        <path d="M-2.189,3.535L103.199,3.535" style="fill:none;stroke:rgb(209,209,209);stroke-width:5.32px;"/>
    </g>
    <g transform="matrix(0.93131,0,0,0.948882,3.89007,66.6454)">
        <path d="M-2.189,3.535L103.199,3.535" style="fill:none;stroke:rgb(209,209,209);stroke-width:5.32px;"/>
    </g>
    <g transform="matrix(0.948882,0,0,0.978215,2.07668,66.5417)">
        <path d="M-2.189,3.535L103.199,3.535" style="fill:none;stroke:rgb(209,209,209);stroke-width:5.19px;"/>
    </g>
    <g transform="matrix(0.948882,0,0,0.966785,2.07668,76.5821)">
        <path d="M-2.189,3.535L103.199,3.535" style="fill:none;stroke:rgb(209,209,209);stroke-width:5.22px;"/>
    </g>
    <g transform="matrix(0.948882,0,0,0.948882,2.07668,86.6454)">
        <path d="M-2.189,3.535L103.199,3.535" style="fill:none;stroke:rgb(209,209,209);stroke-width:5.27px;"/>
    </g>
    <g transform="matrix(0.948882,0,0,0.948882,2.07668,96.6454)">
        <path d="M-2.189,3.535L103.199,3.535" style="fill:none;stroke:rgb(209,209,209);stroke-width:5.27px;"/>
    </g>
</svg>
