<?xml version="1.0" encoding="UTF-8" standalone="no"?>
<!DOCTYPE svg PUBLIC "-//W3C//DTD SVG 1.1//EN" "http://www.w3.org/Graphics/SVG/1.1/DTD/svg11.dtd">
<svg width="100%" height="100%" viewBox="0 0 100 100" version="1.1" xmlns="http://www.w3.org/2000/svg" xmlns:xlink="http://www.w3.org/1999/xlink" xml:space="preserve" xmlns:serif="http://www.serif.com/" style="fill-rule:evenodd;clip-rule:evenodd;stroke-linejoin:round;stroke-miterlimit:1.5;">
    <g>
        <g transform="matrix(1,0,0,1,0,0.591743)">
            <path d="M0,0C32.807,27.357 63.773,-29.724 100,0" style="fill:none;stroke:rgb(209,209,209);stroke-width:5px;"/>
        </g>
        <g transform="matrix(1,0,0,1,0,10.5917)">
            <path d="M0,0C32.807,27.357 63.773,-29.724 100,0" style="fill:none;stroke:rgb(209,209,209);stroke-width:5px;stroke-linecap:square;"/>
        </g>
        <g transform="matrix(1,0,0,1,0,20.5917)">
            <path d="M0,0C32.807,27.357 63.773,-29.724 100,0" style="fill:none;stroke:rgb(209,209,209);stroke-width:5px;stroke-linecap:square;"/>
        </g>
        <g transform="matrix(1,0,0,1,0,30.5917)">
            <path d="M0,0C32.807,27.357 63.773,-29.724 100,0" style="fill:none;stroke:rgb(209,209,209);stroke-width:5px;stroke-linecap:square;"/>
        </g>
        <g transform="matrix(1,0,0,1,0,40.5917)">
            <path d="M0,0C32.807,27.357 63.773,-29.724 100,0" style="fill:none;stroke:rgb(209,209,209);stroke-width:5px;stroke-linecap:square;"/>
        </g>
        <g transform="matrix(1,0,0,1,0,50.5917)">
            <path d="M0,0C32.807,27.357 63.773,-29.724 100,0" style="fill:none;stroke:rgb(209,209,209);stroke-width:5px;stroke-linecap:square;"/>
        </g>
        <g transform="matrix(1,0,0,1,0,60.5917)">
            <path d="M0,0C32.807,27.357 63.773,-29.724 100,0" style="fill:none;stroke:rgb(209,209,209);stroke-width:5px;stroke-linecap:square;"/>
        </g>
        <g transform="matrix(1,0,0,1,0,70.5917)">
            <path d="M0,0C32.807,27.357 63.773,-29.724 100,0" style="fill:none;stroke:rgb(209,209,209);stroke-width:5px;stroke-linecap:square;"/>
        </g>
        <g transform="matrix(1,0,0,1,0,80.5917)">
            <path d="M0,0C32.807,27.357 63.773,-29.724 100,0" style="fill:none;stroke:rgb(209,209,209);stroke-width:5px;stroke-linecap:square;"/>
        </g>
        <g transform="matrix(1,0,0,1,0,90.5917)">
            <path d="M0,0C32.807,27.357 63.773,-29.724 100,0" style="fill:none;stroke:rgb(209,209,209);stroke-width:5px;stroke-linecap:square;"/>
        </g>
        <g transform="matrix(1,0,0,1,0,100.592)">
            <path d="M0,0C32.807,27.357 63.773,-29.724 100,0" style="fill:none;stroke:rgb(209,209,209);stroke-width:5px;stroke-linecap:square;"/>
        </g>
    </g>
</svg>
