<?xml version="1.0" encoding="UTF-8" standalone="no"?>
<!DOCTYPE svg PUBLIC "-//W3C//DTD SVG 1.1//EN" "http://www.w3.org/Graphics/SVG/1.1/DTD/svg11.dtd">
<svg width="100%" height="100%" viewBox="0 0 100 100" version="1.1" xmlns="http://www.w3.org/2000/svg" xmlns:xlink="http://www.w3.org/1999/xlink" xml:space="preserve" xmlns:serif="http://www.serif.com/" style="fill-rule:evenodd;clip-rule:evenodd;stroke-linejoin:round;stroke-miterlimit:1.5;">
    <g>
        <g transform="matrix(6.12323e-17,-1,1,6.12323e-17,0.591743,100)">
            <path d="M0,0C32.807,27.357 63.773,-29.724 100,0" style="fill:none;stroke:rgb(209,209,209);stroke-width:5px;"/>
        </g>
        <g transform="matrix(6.12323e-17,-1,1,6.12323e-17,10.5917,100)">
            <path d="M0,0C32.807,27.357 63.773,-29.724 100,0" style="fill:none;stroke:rgb(209,209,209);stroke-width:5px;stroke-linecap:square;"/>
        </g>
        <g transform="matrix(6.12323e-17,-1,1,6.12323e-17,20.5917,100)">
            <path d="M0,0C32.807,27.357 63.773,-29.724 100,0" style="fill:none;stroke:rgb(209,209,209);stroke-width:5px;stroke-linecap:square;"/>
        </g>
        <g transform="matrix(6.12323e-17,-1,1,6.12323e-17,30.5917,100)">
            <path d="M0,0C32.807,27.357 63.773,-29.724 100,0" style="fill:none;stroke:rgb(209,209,209);stroke-width:5px;stroke-linecap:square;"/>
        </g>
        <g transform="matrix(6.12323e-17,-1,1,6.12323e-17,40.5917,100)">
            <path d="M0,0C32.807,27.357 63.773,-29.724 100,0" style="fill:none;stroke:rgb(209,209,209);stroke-width:5px;stroke-linecap:square;"/>
        </g>
        <g transform="matrix(6.12323e-17,-1,1,6.12323e-17,50.5917,100)">
            <path d="M0,0C32.807,27.357 63.773,-29.724 100,0" style="fill:none;stroke:rgb(209,209,209);stroke-width:5px;stroke-linecap:square;"/>
        </g>
        <g transform="matrix(6.12323e-17,-1,1,6.12323e-17,60.5917,100)">
            <path d="M0,0C32.807,27.357 63.773,-29.724 100,0" style="fill:none;stroke:rgb(209,209,209);stroke-width:5px;stroke-linecap:square;"/>
        </g>
        <g transform="matrix(6.12323e-17,-1,1,6.12323e-17,70.5917,100)">
            <path d="M0,0C32.807,27.357 63.773,-29.724 100,0" style="fill:none;stroke:rgb(209,209,209);stroke-width:5px;stroke-linecap:square;"/>
        </g>
        <g transform="matrix(6.12323e-17,-1,1,6.12323e-17,80.5917,100)">
            <path d="M0,0C32.807,27.357 63.773,-29.724 100,0" style="fill:none;stroke:rgb(209,209,209);stroke-width:5px;stroke-linecap:square;"/>
        </g>
        <g transform="matrix(6.12323e-17,-1,1,6.12323e-17,90.5917,100)">
            <path d="M0,0C32.807,27.357 63.773,-29.724 100,0" style="fill:none;stroke:rgb(209,209,209);stroke-width:5px;stroke-linecap:square;"/>
        </g>
        <g transform="matrix(6.12323e-17,-1,1,6.12323e-17,100.592,100)">
            <path d="M0,0C32.807,27.357 63.773,-29.724 100,0" style="fill:none;stroke:rgb(209,209,209);stroke-width:5px;stroke-linecap:square;"/>
        </g>
    </g>
</svg>
