<?xml version="1.0" encoding="UTF-8" standalone="no"?>
<!DOCTYPE svg PUBLIC "-//W3C//DTD SVG 1.1//EN" "http://www.w3.org/Graphics/SVG/1.1/DTD/svg11.dtd">
<svg width="100%" height="100%" viewBox="0 0 100 100" version="1.1" xmlns="http://www.w3.org/2000/svg" xmlns:xlink="http://www.w3.org/1999/xlink" xml:space="preserve" xmlns:serif="http://www.serif.com/" style="fill-rule:evenodd;clip-rule:evenodd;stroke-linecap:round;stroke-miterlimit:1.5;">
    <g transform="matrix(2.01105,0,0,2.01105,-63.2421,-37.8627)">
        <circle cx="56.31" cy="43.69" r="20.91" style="fill:none;stroke:rgb(209,209,209);stroke-width:2.49px;"/>
    </g>
    <g transform="matrix(1.56345,0,0,1.52467,-2.30561,-11.1814)">
        <g transform="matrix(43.2445,0,0,43.2445,16.1616,53.367)">
            <path d="M0.265,-0.025C0.265,-0.019 0.262,-0.013 0.257,-0.008C0.251,-0.003 0.245,-0 0.239,-0C0.223,-0 0.2,0 0.168,0C0.137,0.001 0.114,0.001 0.098,0.001C0.086,0.001 0.08,-0.004 0.081,-0.015L0.081,-0.02C0.086,-0.144 0.088,-0.22 0.088,-0.246L0.088,-0.391C0.088,-0.4 0.086,-0.405 0.082,-0.405C0.075,-0.405 0.065,-0.403 0.052,-0.399C0.039,-0.395 0.029,-0.393 0.022,-0.393C0.012,-0.393 0.007,-0.399 0.007,-0.411L0.006,-0.511C0.006,-0.518 0.01,-0.523 0.018,-0.526C0.066,-0.546 0.104,-0.572 0.131,-0.606C0.136,-0.613 0.141,-0.616 0.145,-0.616C0.146,-0.616 0.148,-0.616 0.151,-0.615C0.163,-0.613 0.182,-0.609 0.206,-0.603C0.219,-0.601 0.238,-0.598 0.263,-0.594C0.268,-0.593 0.27,-0.589 0.27,-0.583C0.27,-0.582 0.27,-0.578 0.269,-0.573C0.265,-0.545 0.264,-0.474 0.264,-0.363C0.264,-0.325 0.264,-0.269 0.264,-0.194C0.265,-0.119 0.265,-0.062 0.265,-0.025Z" style="fill:rgb(209,209,209);fill-rule:nonzero;"/>
        </g>
        <g transform="matrix(43.2445,0,0,43.2445,30.0767,53.367)">
            <path d="M0.472,-0.013C0.472,-0.006 0.467,-0.002 0.456,-0C0.437,0.003 0.417,0.004 0.395,0.004C0.372,0.004 0.353,0.003 0.338,-0C0.334,-0.001 0.328,-0.004 0.32,-0.01C0.304,-0.033 0.28,-0.067 0.247,-0.112C0.239,-0.102 0.212,-0.069 0.167,-0.011C0.163,-0.005 0.157,-0.002 0.149,-0C0.138,0.003 0.12,0.004 0.095,0.004C0.044,0.004 0.018,-0.002 0.018,-0.013L0.019,-0.1C0.019,-0.106 0.022,-0.112 0.028,-0.118C0.053,-0.145 0.091,-0.184 0.14,-0.238C0.117,-0.26 0.095,-0.281 0.072,-0.303C0.036,-0.339 0.018,-0.36 0.018,-0.366L0.018,-0.452C0.018,-0.461 0.024,-0.465 0.035,-0.465C0.048,-0.465 0.068,-0.464 0.094,-0.463C0.119,-0.462 0.139,-0.462 0.152,-0.462C0.158,-0.462 0.164,-0.458 0.17,-0.451C0.188,-0.427 0.213,-0.397 0.245,-0.361C0.274,-0.396 0.298,-0.426 0.315,-0.451C0.32,-0.458 0.326,-0.461 0.333,-0.461C0.347,-0.461 0.367,-0.462 0.394,-0.463C0.421,-0.464 0.441,-0.465 0.455,-0.465C0.466,-0.465 0.472,-0.461 0.472,-0.452L0.472,-0.366C0.472,-0.36 0.469,-0.354 0.464,-0.349C0.439,-0.324 0.403,-0.286 0.354,-0.235C0.379,-0.209 0.415,-0.17 0.464,-0.117C0.469,-0.111 0.472,-0.105 0.472,-0.099L0.472,-0.013Z" style="fill:rgb(209,209,209);fill-rule:nonzero;"/>
        </g>
    </g>
</svg>
