<?xml version="1.0" encoding="UTF-8" standalone="no"?>
<!DOCTYPE svg PUBLIC "-//W3C//DTD SVG 1.1//EN" "http://www.w3.org/Graphics/SVG/1.1/DTD/svg11.dtd">
<svg width="100%" height="100%" viewBox="0 0 100 100" version="1.1" xmlns="http://www.w3.org/2000/svg" xmlns:xlink="http://www.w3.org/1999/xlink" xml:space="preserve" xmlns:serif="http://www.serif.com/" style="fill-rule:evenodd;clip-rule:evenodd;stroke-linejoin:round;stroke-miterlimit:2;">
    <g>
        <path d="M27.177,58.162C26.241,60.428 25.595,62.753 25.161,65.039C23.974,71.281 24.357,77.25 24.871,81.097C25.451,83.32 25.767,85.114 25.727,86.146C25.68,87.386 24.729,88.404 23.494,88.536C22.259,88.667 21.115,87.873 20.807,86.67C20.807,86.67 20.353,84.901 19.958,82.02C19.792,81.429 19.605,80.798 19.406,80.137C17.334,73.28 13.575,63.619 12.157,59.838C10.585,55.645 10.887,51.075 11.303,47.467C12.037,41.1 17.973,36.407 23.918,34.615C28.208,30.557 34.353,26.022 41.561,21.861C52.426,15.587 62.822,11.831 68.863,11.48C72.561,11.265 74.977,12.428 76.016,14.147C76.044,14.191 76.07,14.237 76.095,14.284C76.34,14.726 76.51,15.226 76.596,15.776L91.703,66.062L89.765,67.938L88.124,69.357C88.091,69.338 88.058,69.318 88.026,69.298C88.058,69.318 88.091,69.338 88.124,69.357C84.078,72.846 78.844,76.544 72.883,79.985C68.174,82.704 57.423,87.397 57.423,87.397L55.533,88.053L55.125,87.764L27.199,58.108L27.177,58.162ZM56.807,82.257L29.658,53.425C30.326,52.4 31.074,51.405 31.91,50.45C32.373,49.921 32.8,49.407 33.193,48.907C38.692,47.175 45.348,44.222 52.19,40.272C61.957,34.633 69.774,28.306 73.669,23.412L86.034,64.572C82.094,68.143 76.657,72.033 70.383,75.655C65.634,78.397 60.992,80.647 56.807,82.257ZM71.659,16.721L71.687,16.815C71.683,16.863 71.678,16.912 71.67,16.951C71.631,17.141 71.565,17.341 71.48,17.552C71.069,18.572 70.267,19.732 69.174,21.014C65.396,25.448 58.338,30.949 49.69,35.942C45.214,38.526 40.833,40.673 36.855,42.29C36.94,41.967 37.005,41.658 37.051,41.364C37.38,39.219 36.831,37.567 35.801,36.331C34.946,35.304 33.697,34.544 32.141,34.136C35.531,31.498 39.583,28.776 44.061,26.191C52.708,21.198 61.001,17.836 66.73,16.781C68.387,16.476 69.793,16.361 70.881,16.515C71.107,16.546 71.313,16.59 71.497,16.652C71.545,16.668 71.606,16.695 71.659,16.721Z" style="fill:rgb(209,209,209);"/>
    </g>
</svg>
