<svg id="Warstwa_1" data-name="Warstwa 1" xmlns="http://www.w3.org/2000/svg" xmlns:xlink="http://www.w3.org/1999/xlink" viewBox="0 0 100 100"><defs><style>.cls-1{fill:#fff;}.cls-2{fill:none;stroke:#d1d1d1;stroke-linecap:round;stroke-linejoin:round;stroke-width:5px;}.cls-3{mask:url(#mask);}</style><mask id="mask" x="2.11" y="2.11" width="95.78" height="95.78" maskUnits="userSpaceOnUse"><rect class="cls-1" x="2.11" y="2.11" width="95.78" height="95.78"/><path d="M86.94,39.21V30.87a12.49,12.49,0,1,0-25,0v8.34a12.48,12.48,0,0,0,6,10.64v.3a12.48,12.48,0,0,0-6,10.64v8.34a12.49,12.49,0,1,0,25,0V60.79a12.47,12.47,0,0,0-6-10.64v-.3A12.47,12.47,0,0,0,86.94,39.21Z"/></mask></defs><path class="cls-2" d="M80.44,69.13a6,6,0,1,1-12,0V60.79a6,6,0,0,1,12,0Z"/><path class="cls-2" d="M80.44,39.21a6,6,0,0,1-12,0V30.87a6,6,0,1,1,12,0Z"/><path class="cls-2" d="M74.45,52.94v0Z"/><g class="cls-3"><path class="cls-2" d="M40.13,33.34a9.27,9.27,0,1,0-9.27,9.26H91.92"/><path class="cls-2" d="M55.32,66.66a9.27,9.27,0,1,1-9.26-9.26H91.92"/><path class="cls-2" d="M26.61,59.24A9.27,9.27,0,1,1,17.35,50H91.92"/></g></svg>