<?xml version="1.0" encoding="UTF-8" standalone="no"?>
<!DOCTYPE svg PUBLIC "-//W3C//DTD SVG 1.1//EN" "http://www.w3.org/Graphics/SVG/1.1/DTD/svg11.dtd">
<svg width="100%" height="100%" viewBox="0 0 100 100" version="1.1" xmlns="http://www.w3.org/2000/svg" xmlns:xlink="http://www.w3.org/1999/xlink" xml:space="preserve" xmlns:serif="http://www.serif.com/" style="fill-rule:evenodd;clip-rule:evenodd;stroke-linejoin:round;stroke-miterlimit:2;">
    <path d="M56.29,24.35C56.29,22.969 55.171,21.85 53.79,21.85L26.16,21.85C24.779,21.85 23.66,22.969 23.66,24.35L23.66,31.6C23.66,32.981 24.779,34.1 26.16,34.1L53.79,34.1C55.171,34.1 56.29,32.981 56.29,31.6L56.29,24.35Z" style="fill:rgb(46,161,255);"/>
    <g transform="matrix(-1,-1.22465e-16,1.22465e-16,-1,99.995,140.703)">
        <path d="M53.524,98.293L53.525,98.293L53.524,98.293L53.536,98.282L53.524,98.293L53.524,98.294L53.546,98.272C54.2,97.611 54.663,96.781 54.872,95.874C54.956,95.509 54.998,95.137 55,94.763L54.995,72.376L54.997,63.176L56.274,64.616C58.105,66.68 61.268,66.87 63.332,65.039C65.397,63.208 65.587,60.046 63.756,57.981C63.756,57.981 53.741,46.688 53.741,46.688C53.67,46.607 53.596,46.529 53.52,46.454C53.031,45.966 52.437,45.576 51.764,45.32C49.822,44.583 47.627,45.124 46.249,46.678C46.249,46.678 36.234,57.971 36.234,57.971C34.403,60.035 34.593,63.198 36.658,65.029C38.722,66.86 41.885,66.67 43.716,64.606C43.716,64.606 44.993,63.166 44.993,63.166L44.995,72.377L44.99,94.757C44.989,97.516 47.229,99.757 49.989,99.758C51.369,99.758 52.62,99.199 53.524,98.293ZM53.524,98.294L53.469,98.346L53.524,98.293L53.524,98.294Z" style="fill:rgb(209,209,209);"/>
    </g>
    <g transform="matrix(-1,0,0,1,99.99,0.0100177)">
        <path d="M50,94.748L49.99,49.995L39.975,61.288" style="fill-opacity:0;"/>
    </g>
    <g transform="matrix(1,0,0,1,-59.6902,-6.54937)">
        <path d="M47.495,72.377L47.49,94.757C47.49,96.137 48.61,97.258 49.989,97.258C50.682,97.258 51.31,96.976 51.763,96.52L51.768,96.515C52.096,96.183 52.331,95.767 52.436,95.312C52.479,95.126 52.499,94.937 52.5,94.747L52.495,72.376L52.499,56.59C52.499,56.59 58.145,62.957 58.145,62.957C59.06,63.989 60.641,64.084 61.674,63.169C62.706,62.253 62.801,60.672 61.885,59.64L51.87,48.346C51.835,48.306 51.798,48.267 51.76,48.229C51.514,47.983 51.216,47.786 50.877,47.658C49.906,47.289 48.809,47.559 48.12,48.336L38.105,59.63C37.189,60.662 37.284,62.243 38.316,63.159C39.349,64.074 40.93,63.979 41.845,62.947L47.491,56.58L47.495,72.377Z" style="fill:rgb(209,209,209);"/>
    </g>
    <path d="M39.999,64.79L26.25,64.79C24.869,64.79 23.75,65.909 23.75,67.29L23.75,74.54C23.75,75.921 24.869,77.04 26.25,77.04L30.265,77.04C30.728,75.126 31.761,73.328 33.345,71.923C35.254,70.23 37.632,69.401 40,69.409L40,68.327L39.999,64.79ZM60.001,64.79L60,68.327L60,69.419C62.368,69.411 64.746,70.24 66.655,71.933C68.236,73.336 69.268,75.129 69.733,77.04L73.73,77.04C75.111,77.04 76.23,75.921 76.23,74.54L76.23,67.29C76.23,65.909 75.111,64.79 73.73,64.79L60.001,64.79Z" style="fill:rgb(255,67,67);"/>
    <path d="M40.212,43.88L26.25,43.88C24.869,43.88 23.75,44.999 23.75,46.38L23.75,53.63C23.75,55.011 24.869,56.13 26.25,56.13L39.997,56.13L39.995,45.942C39.995,45.931 39.995,45.921 39.995,45.91C39.999,45.227 40.071,44.548 40.212,43.88ZM59.791,43.88C59.931,44.548 60.005,45.239 60.005,45.948L60.003,56.13L73.73,56.13C75.111,56.13 76.23,55.011 76.23,53.63L76.23,46.38C76.23,44.999 75.111,43.88 73.73,43.88L59.791,43.88Z" style="fill:rgb(140,198,63);"/>
    <path d="M36.409,90.45L32.498,86.04C32.328,85.848 32.166,85.651 32.013,85.45L15.42,85.45C15.42,85.45 15.42,14.54 15.42,14.54L65.03,14.54L65.03,31.59C65.03,32.971 66.149,34.09 67.53,34.09L84.56,34.09L84.56,85.45L67.994,85.45C67.839,85.655 67.675,85.855 67.502,86.05L63.6,90.45L87.06,90.45C88.441,90.45 89.56,89.331 89.56,87.95L89.56,31.906C89.656,31.151 89.403,30.378 88.848,29.822L69.298,10.272C68.816,9.791 68.171,9.537 67.516,9.54L12.92,9.54C11.539,9.54 10.42,10.659 10.42,12.04L10.42,87.95C10.42,89.331 11.539,90.45 12.92,90.45L36.409,90.45ZM81.044,29.09L70.03,29.09C70.03,29.09 70.03,18.076 70.03,18.076L81.044,29.09Z" style="fill:rgb(209,209,209);"/>
</svg>
