<?xml version="1.0" encoding="UTF-8" standalone="no"?>
<!DOCTYPE svg PUBLIC "-//W3C//DTD SVG 1.1//EN" "http://www.w3.org/Graphics/SVG/1.1/DTD/svg11.dtd">
<svg width="100%" height="100%" viewBox="0 0 100 100" version="1.1" xmlns="http://www.w3.org/2000/svg" xmlns:xlink="http://www.w3.org/1999/xlink" xml:space="preserve" xmlns:serif="http://www.serif.com/" style="fill-rule:evenodd;clip-rule:evenodd;stroke-linejoin:round;stroke-miterlimit:2;">
    <g transform="matrix(0.820084,0,0,0.826381,-174.639,-72.37)">
        <path d="M308.591,101.668L308.591,101.717L259.504,111.718C259.12,111.797 258.844,112.134 258.844,112.526L258.844,174.395C255.256,172.611 249.773,172.935 244.606,175.621C237.43,179.353 233.603,186.206 236.059,190.929C238.515,195.652 246.323,196.456 253.5,192.724C259.489,189.61 263.421,184.306 263.394,179.913L263.394,123.203C263.394,122.858 263.636,122.561 263.974,122.492L307.722,113.615C308.171,113.523 308.591,113.867 308.591,114.325L308.591,153.959C305.003,152.174 299.52,152.498 294.353,155.184C287.177,158.916 283.35,165.77 285.806,170.492C288.261,175.215 296.07,176.019 303.246,172.287C309.236,169.173 312.877,163.887 312.494,159.476L312.529,159.476L312.529,101.911C312.529,101.394 312.059,101.005 311.551,101.102L308.591,101.668Z" style="fill:rgb(209,209,209);fill-rule:nonzero;"/>
    </g>
    <path d="M95.83,6.505C95.83,5.831 95.557,5.185 95.074,4.714C94.591,4.244 93.939,3.988 93.265,4.006L8.369,6.211C7.015,6.246 5.934,7.355 5.934,8.71L5.934,94.444C5.934,95.153 6.236,95.829 6.763,96.303C7.29,96.778 7.994,97.005 8.699,96.93L93.595,87.877C94.866,87.742 95.83,86.67 95.83,85.391L95.83,6.505ZM90.83,9.071L90.83,83.144C90.83,83.144 10.934,91.663 10.934,91.663C10.934,91.664 10.934,11.146 10.934,11.146L90.83,9.071Z" style="fill:rgb(209,209,209);"/>
</svg>
