<?xml version="1.0" encoding="UTF-8" standalone="no"?>
<!DOCTYPE svg PUBLIC "-//W3C//DTD SVG 1.1//EN" "http://www.w3.org/Graphics/SVG/1.1/DTD/svg11.dtd">
<svg width="100%" height="100%" viewBox="0 0 100 100" version="1.1" xmlns="http://www.w3.org/2000/svg" xmlns:xlink="http://www.w3.org/1999/xlink" xml:space="preserve" xmlns:serif="http://www.serif.com/" style="fill-rule:evenodd;clip-rule:evenodd;stroke-linecap:round;stroke-linejoin:round;stroke-miterlimit:1.5;">
    <g>
        <g transform="matrix(1,0,0,1,-3.38721,-22.5499)">
            <g transform="matrix(-1.44008,-1.44008,1.44008,-1.44008,96,194.008)">
                <path d="M50,36.195L50,50" style="fill:none;stroke:rgb(209,209,209);stroke-width:2.46px;"/>
            </g>
            <g transform="matrix(1.44008,-1.44008,1.44008,1.44008,-48.0083,50)">
                <path d="M50,36.195L50,50" style="fill:none;stroke:rgb(209,209,209);stroke-width:2.46px;"/>
            </g>
        </g>
        <g transform="matrix(0.795361,4.93555e-17,5.02265e-17,0.551606,22.3157,-0.130232)">
            <path d="M11.448,50L88.384,50" style="fill:none;stroke:rgb(209,209,209);stroke-width:7.31px;"/>
        </g>
        <g transform="matrix(6.12323e-17,-1,1,6.12323e-17,5.367,77.4501)">
            <circle cx="50" cy="8.249" r="6.229" style="fill:rgb(209,209,209);stroke:rgb(209,209,209);stroke-width:5px;"/>
        </g>
        <g transform="matrix(63.0044,0,0,63.0044,13.3393,92.4299)">
            <path d="M0.004,-0L0.281,-0.373L0.037,-0.716L0.15,-0.716L0.28,-0.532C0.307,-0.494 0.326,-0.465 0.337,-0.444C0.353,-0.47 0.372,-0.498 0.394,-0.526L0.538,-0.716L0.641,-0.716L0.39,-0.378L0.661,-0L0.543,-0L0.363,-0.255C0.353,-0.27 0.343,-0.286 0.332,-0.303C0.316,-0.277 0.305,-0.259 0.298,-0.25L0.118,-0L0.004,-0Z" style="fill:rgb(209,209,209);fill-rule:nonzero;"/>
        </g>
    </g>
</svg>
