<?xml version="1.0"?>
<svg xmlns="http://www.w3.org/2000/svg" width="1854.52" height="1216.356" viewBox="0 0 1854.52 1216.356">
    <g>
        <path d="M1847.305,224.333c-16-9-335,5-668,307l-7.222-11.778s29.334-63.111,18.667-124.888c0,0-7.555-.889-18.222,8,0,0,6.667-33.334,2.222-106.223,0,0-26.222,9.778-42.667,38.223,0,0-3.555-21.334-20-70.667s-.444-118.222-.444-118.222-40.889,17.778-55.556,54.666-10.222,54.667-10.222,54.667-40-66.667-48.444-115.555,1.333-94.667,1.333-94.667S973.861,62.667,963.2,103.111l-4-29.333s-30.223,44.889-37.778,121.778c0,0-54.667-39.112-73.778-87.112s-19.556-89.333-19.556-89.333-40,56.445-20.444,150.222c0,0-70.667-70.222-75.111-169.333,0,0-38.667,50.222-30.667,188,0,0-33.778-28-50.222-75.111,0,0-16,26.222.889,95.111,0,0-81.333-35.111-85.778-162.667,0,0-87.111,64.445,12,253.334,0,0-44.445-14.223-75.111-62.667,0,0-24.889,40.889,24.889,112.889,0,0-57.778-17.333-77.333-92,0,0-59.112,199.555,132.888,250.222,0,0-72.888,8-97.333,76,0,0-137.778-45.778-231.555-38.667S24.1,606.917,5.305,764.333c-25.708,215.356,48.931,389.456,76,390,34.292.69,36-143,116-282S435.861,811.667,504.083,868c0,0-80.444-3.111-118.666,71.555,0,0,19.555-18.666,56.444-23.111,0,0-88.444,90.223-14.222,196,0,0-5.778-64,44.444-108,0,0-43.111,138.667,56,152.445,0,0-36-32.445-29.778-95.556,0,0,6.667,87.111,99.556,87.556,0,0-17.778-9.334-14.666-61.778,0,0,123.317,129.244,301.069,129.245,105.333,0,218.444-40.667,283.556-128.667,77.3-104.473,89.152-196.578,89.152-196.578s23.111,71.111-9.333,125.778c0,0,32-14.222,41.778-68.445,0,0,30.222,99.556-26.667,124.889,0,0,122.222,4,97.778-148.889,0,0,18.222,16.445,20,67.556,0,0,22.667-41.778-2.667-108.889,0,0,42.222,14.222,61.334,73.778,0,0,34.222-120-82.223-164.889,0,0,42.223-11.556,105.333,8,0,0-26.666-82.667-130.666-66.222,0,0,136.666-52.445,337.666-230.445S1863.305,233.333,1847.305,224.333ZM788.006,918.7c1.654-13.238,48.1-40.364,76.625-48.755,37.777-11.111,88.6-6.543,93.152-.134,8.625,12.134-40.708,81.468-60.264,87.245S785.783,936.477,788.006,918.7Zm-219.469-45.81c-17.777-27.111-22.222-62.667-16.888-105.334,7.137-57.1,32-128,78.666-141.777S720.093,630.222,748.093,668s42.222,88.444,39.556,129.333S763.2,875.555,698.76,899.555,589.791,905.3,568.537,872.889Zm554.756,134.861c-31.355,51.111-98.085,100-98.085,100-9.245-12.445-28.541-21.778-28.541-21.778-1.206,20.444-10.853,42.666-10.853,42.666l-30.953,12c-10.452-4.888-38.591-34.666-38.591-34.666a78.415,78.415,0,0,0-12.864,39.111c-128.233-7.111-175.475-64-175.475-64s10.058,3.555,13.877,3.555,10.853-6.888,10.853-6.888,14.472,9.111,17.688,8,6.633-8.889,6.633-8.889,14.069,6.889,16.682,5.777,8.442-12.222,8.442-12.222,15.276,7.111,19.295,6.889,13.869-12.222,13.869-12.222c26.531,20.889,51.052,20,51.052,20s-2.412-36.889,0-41.778,86.427-40.444,99.692-39.555,36.782,36.222,36.782,36.222c23.114-16.889,27.336-71.778,27.336-71.778l11.456-5.778s14.471,5.556,18.089,4.667,14.673-22.667,14.673-22.667,8.844,3.556,12.261,3.334,11.657-18.667,11.657-18.667,8.04,1.778,10.653,1.111,4.823-14.444,4.823-14.444,9.648,0,12.06-.445,12.059-24.444,12.059-24.444S1154.648,956.638,1123.293,1007.75Zm-19.7-207.681c-43.333,21.333-127.286,35.782-168.847-1.245-48.889-43.556-36.463-143.556-22.667-185.334,19.481-58.99,75.556-91.555,144.889-68s101.1,92.579,105.993,139.246S1156.8,773.877,1103.6,800.069Z" fill="#FFF"/>
        <ellipse cx="698.493" cy="770.509" rx="59.333" ry="79.111" fill="#FFF"/>
        <ellipse cx="1054.071" cy="703.397" rx="59.333" ry="79.111" fill="#FFF"/>
    </g>
</svg>
