<?xml version="1.0" encoding="UTF-8" standalone="no"?>
<!DOCTYPE svg PUBLIC "-//W3C//DTD SVG 1.1//EN" "http://www.w3.org/Graphics/SVG/1.1/DTD/svg11.dtd">
<svg width="100%" height="100%" viewBox="0 0 100 100" version="1.1" xmlns="http://www.w3.org/2000/svg" xmlns:xlink="http://www.w3.org/1999/xlink" xml:space="preserve" xmlns:serif="http://www.serif.com/" style="fill-rule:evenodd;clip-rule:evenodd;stroke-linejoin:round;stroke-miterlimit:1.5;">
    <g>
        <g transform="matrix(6.12323e-17,-1,1,6.12323e-17,-2.10227,100)">
            <path d="M0,50L50,64.205L100,50" style="fill:none;stroke:rgb(209,209,209);stroke-width:5px;"/>
        </g>
        <g transform="matrix(6.12323e-17,-1,1,6.12323e-17,7.89773,100)">
            <path d="M0,50L50,64.205L100,50" style="fill:none;stroke:rgb(209,209,209);stroke-width:5px;"/>
        </g>
        <g transform="matrix(6.12323e-17,-1,1,6.12323e-17,17.8977,100)">
            <path d="M0,50L50,64.205L100,50" style="fill:none;stroke:rgb(209,209,209);stroke-width:5px;"/>
        </g>
        <g transform="matrix(6.12323e-17,-1,1,6.12323e-17,27.8977,100)">
            <path d="M0,50L50,64.205L100,50" style="fill:none;stroke:rgb(209,209,209);stroke-width:5px;"/>
        </g>
        <g transform="matrix(6.12323e-17,-1,1,6.12323e-17,37.8977,100)">
            <path d="M0,50L50,64.205L100,50" style="fill:none;stroke:rgb(209,209,209);stroke-width:5px;"/>
        </g>
        <g transform="matrix(6.12323e-17,-1,1,6.12323e-17,47.8977,100)">
            <path d="M0,50L50,64.205L100,50" style="fill:none;stroke:rgb(209,209,209);stroke-width:5px;"/>
        </g>
        <g transform="matrix(6.12323e-17,-1,1,6.12323e-17,-52.1023,100)">
            <path d="M0,50L50,64.205L100,50" style="fill:none;stroke:rgb(209,209,209);stroke-width:5px;"/>
        </g>
        <g transform="matrix(6.12323e-17,-1,1,6.12323e-17,-62.1023,100)">
            <path d="M0,50L50,64.205L100,50" style="fill:none;stroke:rgb(209,209,209);stroke-width:5px;"/>
        </g>
        <g transform="matrix(6.12323e-17,-1,1,6.12323e-17,-42.1023,100)">
            <path d="M0,50L50,64.205L100,50" style="fill:none;stroke:rgb(209,209,209);stroke-width:5px;"/>
        </g>
        <g transform="matrix(6.12323e-17,-1,1,6.12323e-17,-32.1023,100)">
            <path d="M0,50L50,64.205L100,50" style="fill:none;stroke:rgb(209,209,209);stroke-width:5px;"/>
        </g>
        <g transform="matrix(6.12323e-17,-1,1,6.12323e-17,-22.1023,100)">
            <path d="M0,50L50,64.205L100,50" style="fill:none;stroke:rgb(209,209,209);stroke-width:5px;"/>
        </g>
        <g transform="matrix(6.12323e-17,-1,1,6.12323e-17,-12.1023,100)">
            <path d="M0,50L50,64.205L100,50" style="fill:none;stroke:rgb(209,209,209);stroke-width:5px;"/>
        </g>
        <g transform="matrix(6.12323e-17,-1,1,6.12323e-17,-2.10227,100)">
            <path d="M0,50L50,64.205L100,50" style="fill:none;stroke:rgb(209,209,209);stroke-width:5px;"/>
        </g>
        <g transform="matrix(6.12323e-17,-1,1,6.12323e-17,7.89773,100)">
            <path d="M0,50L50,64.205L100,50" style="fill:none;stroke:rgb(209,209,209);stroke-width:5px;"/>
        </g>
        <g transform="matrix(6.12323e-17,-1,1,6.12323e-17,17.8977,100)">
            <path d="M0,50L50,64.205L100,50" style="fill:none;stroke:rgb(209,209,209);stroke-width:5px;"/>
        </g>
        <g transform="matrix(6.12323e-17,-1,1,6.12323e-17,27.8977,100)">
            <path d="M0,50L50,64.205L100,50" style="fill:none;stroke:rgb(209,209,209);stroke-width:5px;"/>
        </g>
        <g transform="matrix(6.12323e-17,-1,1,6.12323e-17,37.8977,100)">
            <path d="M0,50L50,64.205L100,50" style="fill:none;stroke:rgb(209,209,209);stroke-width:5px;"/>
        </g>
        <g transform="matrix(6.12323e-17,-1,1,6.12323e-17,47.8977,100)">
            <path d="M0,50L50,64.205L100,50" style="fill:none;stroke:rgb(209,209,209);stroke-width:5px;"/>
        </g>
        <g transform="matrix(6.12323e-17,-1,1,6.12323e-17,-52.1023,100)">
            <path d="M0,50L50,64.205L100,50" style="fill:none;stroke:rgb(209,209,209);stroke-width:5px;"/>
        </g>
        <g transform="matrix(6.12323e-17,-1,1,6.12323e-17,-62.1023,100)">
            <path d="M0,50L50,64.205L100,50" style="fill:none;stroke:rgb(209,209,209);stroke-width:5px;"/>
        </g>
        <g transform="matrix(6.12323e-17,-1,1,6.12323e-17,-42.1023,100)">
            <path d="M0,50L50,64.205L100,50" style="fill:none;stroke:rgb(209,209,209);stroke-width:5px;"/>
        </g>
        <g transform="matrix(6.12323e-17,-1,1,6.12323e-17,-32.1023,100)">
            <path d="M0,50L50,64.205L100,50" style="fill:none;stroke:rgb(209,209,209);stroke-width:5px;"/>
        </g>
        <g transform="matrix(6.12323e-17,-1,1,6.12323e-17,-22.1023,100)">
            <path d="M0,50L50,64.205L100,50" style="fill:none;stroke:rgb(209,209,209);stroke-width:5px;"/>
        </g>
        <g transform="matrix(6.12323e-17,-1,1,6.12323e-17,-12.1023,100)">
            <path d="M0,50L50,64.205L100,50" style="fill:none;stroke:rgb(209,209,209);stroke-width:5px;"/>
        </g>
    </g>
</svg>
